<?xml version="1.0" standalone="yes"?>
<svg xmlns="http://www.w3.org/2000/svg" width="650" height="642" fill="none">
<path style="fill:#010101; stroke:none;" d="M0 0L0 642L650 642L650 0L0 0z"/>
<path style="fill:#eca752; stroke:none;" d="M71 12L72 13L71 12z"/>
<path style="fill:#fbb155; stroke:none;" d="M65 101L65 207C65 225.278 63.3538 246.944 73.3889 263C86.0171 283.205 120.326 280 141 280C146.078 280 162.806 283.572 164 278L165 278C170.98 290.55 190.136 292.364 200.996 285.441C214.74 276.679 217.504 257.671 207.471 245.015C198.159 233.27 180.433 232.168 169.015 241.39C165.169 244.497 163.202 251.476 158.787 253.397C154.114 255.43 147.838 253.251 143 253.039C130.481 252.491 110.354 255.902 99.044 249.822C88.6935 244.257 92 222.693 92 213L92 102C120.078 97.1653 132.894 62.0255 121.507 38C113.239 20.5549 95.7606 11.5491 77 12.0146C56.6274 12.5202 38.8626 28.3377 34.669 48C30.1977 68.9641 42.0944 96.9143 65 101z"/>
<path style="fill:#f3ab54; stroke:none;" d="M87 12L88 13L87 12z"/>
<path style="fill:#e7a351; stroke:none;" d="M88 12L89 13L88 12z"/>
<path style="fill:#f3ab54; stroke:none;" d="M67 13L68 14L67 13z"/>
<path style="fill:#eca752; stroke:none;" d="M92 13L93 14L92 13M95 14L96 15L95 14z"/>
<path style="fill:#f3ab54; stroke:none;" d="M61 15L62 16L61 15M59 16L60 17L59 16M57 17L58 18L57 17z"/>
<path style="fill:#eca752; stroke:none;" d="M105 19L106 20L105 19z"/>
<path style="fill:#f3ab54; stroke:none;" d="M51 21L52 22L51 21z"/>
<path style="fill:#e7a351; stroke:none;" d="M109 22L110 23L109 22z"/>
<path style="fill:#f3ab54; stroke:none;" d="M110 23L111 24L110 23M111 24L112 25L111 24z"/>
<path style="fill:#fbb155; stroke:none;" d="M388 164C379.538 134.694 335.079 141.854 335.079 172C335.079 199.956 378.543 210.472 387 182L388 182L387 189C411.207 189 440.532 193.671 463 183.11C489.596 170.609 511.071 143.625 533 124.576C538.204 120.055 542.83 113.945 548.83 110.441C553.521 107.703 564.529 114.7 570 115.561C581.906 117.435 594.3 114.151 604 107.073C638.407 81.9635 620.537 26.9342 579 24.0895C556.801 22.5692 534.505 39.7675 531.3 62C530.336 68.6842 534.918 82.1397 532.072 87.4244C527.397 96.1032 515.328 103.823 508 110.286C491.223 125.082 475.441 142.477 457 155.226C446.232 162.671 430.806 164.049 418 162.83C409.791 162.049 395.052 159.061 388 164z"/>
<path style="fill:#e7a351; stroke:none;" d="M582 24L583 25L582 24z"/>
<path style="fill:#eca752; stroke:none;" d="M565 25L566 26L565 25z"/>
<path style="fill:#f3ab54; stroke:none;" d="M587 25L588 26L587 25M113 26L114 27L113 26M114 27L115 28L114 27M559 27L560 28L559 27z"/>
<path style="fill:#e7a351; stroke:none;" d="M115 28L116 29L115 28z"/>
<path style="fill:#f3ab54; stroke:none;" d="M43 29L44 30L43 29M553 30L554 31L553 30M117 31L118 32L117 31z"/>
<path style="fill:#e7a351; stroke:none;" d="M601 31L602 32L601 31M40 33L41 34L40 33z"/>
<path style="fill:#f3ab54; stroke:none;" d="M119 34L120 35L119 34z"/>
<path style="fill:#e7a351; stroke:none;" d="M404 34L405 35L404 34z"/>
<path style="fill:#fbb155; stroke:none;" d="M272 147L276 146L276 147C245.985 156.585 258.856 202.092 289 198.826C315.084 196 323.376 152.647 295 147L295 146L299 146C299 135.951 299.861 125.99 299.996 116C300.064 110.993 299.632 103.387 302.742 99.1481C305.603 95.2489 311.669 95.7966 316 95.2855C326.772 94.0146 338.158 95 349 95C352.947 95 359.232 93.842 362.722 96.0278C366.64 98.4819 368.206 106.149 370.699 110C376.301 118.654 384.354 125.272 394 128.934C428.502 142.032 462.54 114.751 460.961 79C459.333 42.1561 416.123 23.1818 386 41.257C379.782 44.988 374.794 49.9188 370.866 56C368.6 59.508 367.017 65.6946 362.892 67.3966C357.741 69.5222 349.51 68 344 68C329.162 68 312.421 66.5491 298 70.49C267.089 78.9371 272 122.022 272 147z"/>
<path style="fill:#eca752; stroke:none;" d="M419 34L420 35L419 34M547 34L548 35L547 34z"/>
<path style="fill:#f3ab54; stroke:none;" d="M605 34L606 35L605 34z"/>
<path style="fill:#e7a351; stroke:none;" d="M399 35L400 36L399 35M424 35L425 36L424 35z"/>
<path style="fill:#f3ab54; stroke:none;" d="M546 35L547 36L546 35M396 36L397 37L396 36z"/>
<path style="fill:#e7a351; stroke:none;" d="M393 37L394 38L393 37z"/>
<path style="fill:#eca752; stroke:none;" d="M430 37L431 38L430 37z"/>
<path style="fill:#f3ab54; stroke:none;" d="M391 38L392 39L391 38M37 39L38 40L37 39z"/>
<path style="fill:#eca752; stroke:none;" d="M75 39L76 40L75 39z"/>
<path style="fill:#010101; stroke:none;" d="M76 39.5293C52.5034 44.9229 59.7268 81.2484 83 76.4776C107.241 71.5083 99.9435 34.0331 76 39.5293z"/>
<path style="fill:#f3ab54; stroke:none;" d="M542 39L543 40L542 39z"/>
<path style="fill:#e7a351; stroke:none;" d="M72 40L73 41L72 40z"/>
<path style="fill:#f3ab54; stroke:none;" d="M122 40L123 41L122 40z"/>
<path style="fill:#eca752; stroke:none;" d="M387 40L388 41L387 40z"/>
<path style="fill:#f3ab54; stroke:none;" d="M436 40L437 41L436 40M541 40L542 41L541 40z"/>
<path style="fill:#e7a351; stroke:none;" d="M70 41L71 42L70 41M540 41L541 42L540 41z"/>
<path style="fill:#eca752; stroke:none;" d="M612 41L613 42L612 41z"/>
<path style="fill:#f3ab54; stroke:none;" d="M67 43L68 44L67 43z"/>
<path style="fill:#e7a351; stroke:none;" d="M35 44L36 45L35 44z"/>
<path style="fill:#eca752; stroke:none;" d="M66 44L67 45L66 44z"/>
<path style="fill:#e7a351; stroke:none;" d="M381 44L382 45L381 44z"/>
<path style="fill:#eca752; stroke:none;" d="M442 44L443 45L442 44z"/>
<path style="fill:#f3ab54; stroke:none;" d="M538 44L539 45L538 44M65 45L66 46L65 45z"/>
<path style="fill:#eca752; stroke:none;" d="M124 46L125 47L124 46M95 47L96 48L95 47z"/>
<path style="fill:#e7a351; stroke:none;" d="M536 47L537 48L536 47z"/>
<path style="fill:#f3ab54; stroke:none;" d="M616 47L617 48L616 47z"/>
<path style="fill:#eca752; stroke:none;" d="M34 48L35 49L34 48M535 49L536 50L535 49z"/>
<path style="fill:#e7a351; stroke:none;" d="M97 51L98 52L97 51z"/>
<path style="fill:#eca752; stroke:none;" d="M125 51L126 52L125 51M534 51L535 52L534 51z"/>
<path style="fill:#e7a351; stroke:none;" d="M572 51L573 52L572 51z"/>
<path style="fill:#010101; stroke:none;" d="M573 51.4684C548.338 56.1701 556.447 93.9572 581 88.6096C604.574 83.4752 596.545 46.9797 573 51.4684z"/>
<path style="fill:#f3ab54; stroke:none;" d="M618 51L619 52L618 51z"/>
<path style="fill:#e7a351; stroke:none;" d="M373 52L374 53L373 52z"/>
<path style="fill:#f3ab54; stroke:none;" d="M450 52L451 53L450 52z"/>
<path style="fill:#eca752; stroke:none;" d="M565 54L566 55L565 54z"/>
<path style="fill:#e7a351; stroke:none;" d="M587 54L588 55L587 54z"/>
<path style="fill:#eca752; stroke:none;" d="M98 55L99 56L98 55M620 56L621 57L620 56z"/>
<path style="fill:#e7a351; stroke:none;" d="M33.3333 57.6667L33.6667 58.3333L33.3333 57.6667z"/>
<path style="fill:#f3ab54; stroke:none;" d="M369 58L370 59L369 58M454 58L455 59L454 58M560 59L561 60L560 59M592 59L593 60L592 59z"/>
<path style="fill:#eca752; stroke:none;" d="M98 60L99 61L98 60z"/>
<path style="fill:#e7a351; stroke:none;" d="M531 60L532 61L531 60z"/>
<path style="fill:#f3ab54; stroke:none;" d="M621 60L622 61L621 60z"/>
<path style="fill:#eca752; stroke:none;" d="M406 61L407 62L406 61z"/>
<path style="fill:#010101; stroke:none;" d="M407 61.5186C378.226 67.7593 389.35 110.851 418 104.61C445.453 98.6288 434.564 55.5403 407 61.5186z"/>
<path style="fill:#eca752; stroke:none;" d="M417 61L418 62L417 61M559 61L560 62L559 61M403 62L404 63L403 62z"/>
<path style="fill:#e7a351; stroke:none;" d="M420 62L421 63L420 62z"/>
<path style="fill:#f3ab54; stroke:none;" d="M125 63L126 64L125 63M594 63L595 64L594 63z"/>
<path style="fill:#eca752; stroke:none;" d="M97 64L98 65L97 64z"/>
<path style="fill:#e7a351; stroke:none;" d="M125 64L126 65L125 64z"/>
<path style="fill:#f3ab54; stroke:none;" d="M366 64L367 65L366 64M424 64L425 65L424 64z"/>
<path style="fill:#e7a351; stroke:none;" d="M62 65L63 66L62 65M34 67L35 68L34 67z"/>
<path style="fill:#eca752; stroke:none;" d="M63 67L64 68L63 67z"/>
<path style="fill:#f3ab54; stroke:none;" d="M595 67L596 68L595 67M95 68L96 69L95 68z"/>
<path style="fill:#e7a351; stroke:none;" d="M315 68L316 69L315 68z"/>
<path style="fill:#f3ab54; stroke:none;" d="M316 68L317 69L316 68z"/>
<path style="fill:#eca752; stroke:none;" d="M557 68L558 69L557 68M622 68L623 69L622 68z"/>
<path style="fill:#e7a351; stroke:none;" d="M124 69L125 70L124 69z"/>
<path style="fill:#f3ab54; stroke:none;" d="M302 69L303 70L302 69M393 70L394 71L393 70z"/>
<path style="fill:#eca752; stroke:none;" d="M430 70L431 71L430 70z"/>
<path style="fill:#e7a351; stroke:none;" d="M530 70L531 71L530 70z"/>
<path style="fill:#f3ab54; stroke:none;" d="M66 71L67 72L66 71z"/>
<path style="fill:#eca752; stroke:none;" d="M557 71L558 72L557 71M622 71L623 72L622 71z"/>
<path style="fill:#f3ab54; stroke:none;" d="M123 72L124 73L123 72z"/>
<path style="fill:#eca752; stroke:none;" d="M292 72L293 73L292 72M595 72L596 73L595 72z"/>
<path style="fill:#f3ab54; stroke:none;" d="M90 73L91 74L90 73M290 73L291 74L290 73M70 74L71 75L70 74z"/>
<path style="fill:#eca752; stroke:none;" d="M460 74L461 75L460 74z"/>
<path style="fill:#f3ab54; stroke:none;" d="M72 75L73 76L72 75z"/>
<path style="fill:#e7a351; stroke:none;" d="M86 75L87 76L86 75z"/>
<path style="fill:#eca752; stroke:none;" d="M122 75L123 76L122 75z"/>
<path style="fill:#f3ab54; stroke:none;" d="M37 76L38 77L37 76z"/>
<path style="fill:#e7a351; stroke:none;" d="M76 76L77 77L76 76z"/>
<path style="fill:#f3ab54; stroke:none;" d="M83 76L84 77L83 76M558 76L559 77L558 76z"/>
<path style="fill:#e7a351; stroke:none;" d="M594 76L595 77L594 76z"/>
<path style="fill:#f3ab54; stroke:none;" d="M121 77L122 78L121 77M38 78L39 79L38 78M120 79L121 80L120 79M531 79L532 80L531 79M39 80L40 81L39 80z"/>
<path style="fill:#eca752; stroke:none;" d="M560 80L561 81L560 80M119 81L120 82L119 81M532 83L533 84L532 83z"/>
<path style="fill:#f3ab54; stroke:none;" d="M117 84L118 85L117 84z"/>
<path style="fill:#eca752; stroke:none;" d="M278 85L279 86L278 85M43 86L44 87L43 86M533 86L534 87L533 86z"/>
<path style="fill:#f3ab54; stroke:none;" d="M566 86L567 87L566 86M586 86L587 87L586 86z"/>
<path style="fill:#eca752; stroke:none;" d="M619 86L620 87L619 86z"/>
<path style="fill:#f3ab54; stroke:none;" d="M277 87L278 88L277 87M568 87L569 88L568 87z"/>
<path style="fill:#eca752; stroke:none;" d="M584 87L585 88L584 87M113 89L114 90L113 89M433 89L434 90L433 89z"/>
<path style="fill:#f3ab54; stroke:none;" d="M112 90L113 91L112 90z"/>
<path style="fill:#eca752; stroke:none;" d="M111 91L112 92L111 91z"/>
<path style="fill:#e7a351; stroke:none;" d="M110 92L111 93L110 92z"/>
<path style="fill:#f3ab54; stroke:none;" d="M432 92L433 93L432 92z"/>
<path style="fill:#e7a351; stroke:none;" d="M51 94L52 95L51 94z"/>
<path style="fill:#eca752; stroke:none;" d="M615 94L616 95L615 94z"/>
<path style="fill:#f3ab54; stroke:none;" d="M106 95L107 96L106 95M314 95L315 96L314 95z"/>
<path style="fill:#e7a351; stroke:none;" d="M315 95L316 96L315 95M524 95L525 96L524 95z"/>
<path style="fill:#f3ab54; stroke:none;" d="M54 96L55 97L54 96M304 96L305 97L304 96z"/>
<path style="fill:#eca752; stroke:none;" d="M523 96L524 97L523 96z"/>
<path style="fill:#f3ab54; stroke:none;" d="M103 97L104 98L103 97M522 97L523 98L522 97z"/>
<path style="fill:#e7a351; stroke:none;" d="M613 97L614 98L613 97M57 98L58 99L57 98z"/>
<path style="fill:#f3ab54; stroke:none;" d="M521 98L522 99L521 98z"/>
<path style="fill:#eca752; stroke:none;" d="M458 99L459 100L458 99z"/>
<path style="fill:#f3ab54; stroke:none;" d="M97 100L98 101L97 100M64 101L65 102L64 101M423 102L424 103L423 102M402 103L403 104L402 103M421 103L422 104L421 103M410 105L411 106L410 105z"/>
<path style="fill:#e7a351; stroke:none;" d="M411.667 105.333L412.333 105.667L411.667 105.333z"/>
<path style="fill:#f3ab54; stroke:none;" d="M413 105L414 106L413 105M604 106L605 107L604 106z"/>
<path style="fill:#eca752; stroke:none;" d="M273 107L274 108L273 107M300 107L301 108L300 107z"/>
<path style="fill:#e7a351; stroke:none;" d="M511 107L512 108L511 107z"/>
<path style="fill:#eca752; stroke:none;" d="M510 108L511 109L510 108z"/>
<path style="fill:#f3ab54; stroke:none;" d="M370 109L371 110L370 109M453 109L454 110L453 109z"/>
<path style="fill:#eca752; stroke:none;" d="M554 110L555 111L554 110z"/>
<path style="fill:#f3ab54; stroke:none;" d="M598 110L599 111L598 110z"/>
<path style="fill:#eca752; stroke:none;" d="M556 111L557 112L556 111z"/>
<path style="fill:#f3ab54; stroke:none;" d="M596 111L597 112L596 111z"/>
<path style="fill:#e7a351; stroke:none;" d="M372 112L373 113L372 112z"/>
<path style="fill:#f3ab54; stroke:none;" d="M451 112L452 113L451 112z"/>
<path style="fill:#e7a351; stroke:none;" d="M558 112L559 113L558 112z"/>
<path style="fill:#eca752; stroke:none;" d="M594 112L595 113L594 112z"/>
<path style="fill:#f3ab54; stroke:none;" d="M544 113L545 114L544 113M561 113L562 114L561 113M543 114L544 115L543 114z"/>
<path style="fill:#eca752; stroke:none;" d="M564 114L565 115L564 114z"/>
<path style="fill:#f3ab54; stroke:none;" d="M588 114L589 115L588 114z"/>
<path style="fill:#eca752; stroke:none;" d="M542 115L543 116L542 115z"/>
<path style="fill:#f3ab54; stroke:none;" d="M569 115L570 116L569 115z"/>
<path style="fill:#e7a351; stroke:none;" d="M541 116L542 117L541 116z"/>
<path style="fill:#eca752; stroke:none;" d="M500 117L501 118L500 117z"/>
<path style="fill:#f3ab54; stroke:none;" d="M499 118L500 119L499 118M498 119L499 120L498 119z"/>
<path style="fill:#eca752; stroke:none;" d="M299 122L300 123L299 122M382 122L383 123L382 122z"/>
<path style="fill:#f3ab54; stroke:none;" d="M441 122L442 123L441 122z"/>
<path style="fill:#eca752; stroke:none;" d="M272.333 123.667L272.667 124.333L272.333 123.667z"/>
<path style="fill:#f3ab54; stroke:none;" d="M272 125L273 126L272 125M531 125L532 126L531 125z"/>
<path style="fill:#e7a351; stroke:none;" d="M388 126L389 127L388 126z"/>
<path style="fill:#eca752; stroke:none;" d="M435 126L436 127L435 126z"/>
<path style="fill:#e7a351; stroke:none;" d="M490 126L491 127L490 126z"/>
<path style="fill:#f3ab54; stroke:none;" d="M530 126L531 127L530 126z"/>
<path style="fill:#e7a351; stroke:none;" d="M433 127L434 128L433 127z"/>
<path style="fill:#f3ab54; stroke:none;" d="M489 127L490 128L489 127z"/>
<path style="fill:#eca752; stroke:none;" d="M529 127L530 128L529 127z"/>
<path style="fill:#e7a351; stroke:none;" d="M431 128L432 129L431 128M528 128L529 129L528 128z"/>
<path style="fill:#f3ab54; stroke:none;" d="M395 129L396 130L395 129M428 129L429 130L428 129M398 130L399 131L398 130M425 130L426 131L425 130z"/>
<path style="fill:#eca752; stroke:none;" d="M402 131L403 132L402 131z"/>
<path style="fill:#f3ab54; stroke:none;" d="M421 131L422 132L421 131z"/>
<path style="fill:#e7a351; stroke:none;" d="M481 134L482 135L481 134z"/>
<path style="fill:#eca752; stroke:none;" d="M480 135L481 136L480 135z"/>
<path style="fill:#f3ab54; stroke:none;" d="M520 135L521 136L520 135M519 136L520 137L519 136z"/>
<path style="fill:#eca752; stroke:none;" d="M518 137L519 138L518 137z"/>
<path style="fill:#e7a351; stroke:none;" d="M472 142L473 143L472 142z"/>
<path style="fill:#f3ab54; stroke:none;" d="M471 143L472 144L471 143M509 145L510 146L509 145z"/>
<path style="fill:#eca752; stroke:none;" d="M273 146L274 147L273 146z"/>
<path style="fill:#f3ab54; stroke:none;" d="M274.667 146.333L275.333 146.667L274.667 146.333M295 146L296 147L295 146z"/>
<path style="fill:#e7a351; stroke:none;" d="M352 146L353 147L352 146z"/>
<path style="fill:#eca752; stroke:none;" d="M508 146L509 147L508 146z"/>
<path style="fill:#f3ab54; stroke:none;" d="M350 147L351 148L350 147z"/>
<path style="fill:#e7a351; stroke:none;" d="M374 147L375 148L374 147M507 147L508 148L507 147M348 148L349 149L348 148z"/>
<path style="fill:#f3ab54; stroke:none;" d="M270 149L271 150L270 149z"/>
<path style="fill:#e7a351; stroke:none;" d="M464 149L465 150L464 149z"/>
<path style="fill:#f3ab54; stroke:none;" d="M302 150L303 151L302 150z"/>
<path style="fill:#e7a351; stroke:none;" d="M345 150L346 151L345 150z"/>
<path style="fill:#f3ab54; stroke:none;" d="M463 150L464 151L463 150M344 151L345 152L344 151z"/>
<path style="fill:#e7a351; stroke:none;" d="M381 152L382 153L381 152z"/>
<path style="fill:#f3ab54; stroke:none;" d="M342 153L343 154L342 153M500 153L501 154L500 153M341 154L342 155L341 154M458 154L459 155L458 154z"/>
<path style="fill:#eca752; stroke:none;" d="M499 154L500 155L499 154M307 155L308 156L307 155z"/>
<path style="fill:#e7a351; stroke:none;" d="M498 155L499 156L498 155z"/>
<path style="fill:#f3ab54; stroke:none;" d="M455 156L456 157L455 156z"/>
<path style="fill:#e7a351; stroke:none;" d="M385 157L386 158L385 157z"/>
<path style="fill:#eca752; stroke:none;" d="M309 158L310 159L309 158z"/>
<path style="fill:#f3ab54; stroke:none;" d="M386 159L387 160L386 159z"/>
<path style="fill:#e7a351; stroke:none;" d="M449 159L450 160L449 159z"/>
<path style="fill:#eca752; stroke:none;" d="M310 160L311 161L310 160z"/>
<path style="fill:#f3ab54; stroke:none;" d="M387 161L388 162L387 161M443 161L444 162L443 161M491 161L492 162L491 161z"/>
<path style="fill:#eca752; stroke:none;" d="M415 162L415 163L419 163L415 162z"/>
<path style="fill:#e7a351; stroke:none;" d="M419 162L420 163L419 162z"/>
<path style="fill:#eca752; stroke:none;" d="M424 162L424 163L432 163L424 162M490 162L491 163L490 162z"/>
<path style="fill:#f3ab54; stroke:none;" d="M336 163L337 164L336 163M388 163L389 164L388 163z"/>
<path style="fill:#e7a351; stroke:none;" d="M489 163L490 164L489 163z"/>
<path style="fill:#eca752; stroke:none;" d="M312 166L313 167L312 166M335 167L336 168L335 167z"/>
<path style="fill:#f3ab54; stroke:none;" d="M483 168L484 169L483 168z"/>
<path style="fill:#eca752; stroke:none;" d="M482 169L483 170L482 169M476 174L477 175L476 174M335 176L336 177L335 176z"/>
<path style="fill:#e7a351; stroke:none;" d="M312 177L313 178L312 177M472 177L473 178L472 177z"/>
<path style="fill:#eca752; stroke:none;" d="M336 180L337 181L336 180z"/>
<path style="fill:#f3ab54; stroke:none;" d="M467 180L468 181L467 180M387 182L388 183L387 182z"/>
<path style="fill:#e7a351; stroke:none;" d="M310 183L311 184L310 183z"/>
<path style="fill:#eca752; stroke:none;" d="M386 184L387 185L386 184M459 184L460 185L459 184z"/>
<path style="fill:#e7a351; stroke:none;" d="M387 186L388 187L387 186z"/>
<path style="fill:#eca752; stroke:none;" d="M263 187L264 188L263 187M387 187L388 188L387 187z"/>
<path style="fill:#e7a351; stroke:none;" d="M450 187L451 188L450 187z"/>
<path style="fill:#f3ab54; stroke:none;" d="M306 189L307 190L306 189z"/>
<path style="fill:#e7a351; stroke:none;" d="M341 189L342 190L341 189M421 189L422 190L421 189z"/>
<path style="fill:#eca752; stroke:none;" d="M422.667 189.333L423.333 189.667L422.667 189.333M342 190L343 191L342 190z"/>
<path style="fill:#f3ab54; stroke:none;" d="M343 191L344 192L343 191M303 192L304 193L303 192z"/>
<path style="fill:#e7a351; stroke:none;" d="M344 192L345 193L344 192M302 193L303 194L302 193M270 194L271 195L270 194z"/>
<path style="fill:#f3ab54; stroke:none;" d="M377 194L378 195L377 194z"/>
<path style="fill:#eca752; stroke:none;" d="M299 195L300 196L299 195M297 196L298 197L297 196z"/>
<path style="fill:#e7a351; stroke:none;" d="M350 196L351 197L350 196z"/>
<path style="fill:#eca752; stroke:none;" d="M276 197L277 198L276 197z"/>
<path style="fill:#f3ab54; stroke:none;" d="M371 197L372 198L371 197M291 198L292 199L291 198M356 198L357 199L356 198z"/>
<path style="fill:#e7a351; stroke:none;" d="M368 198L369 199L368 198z"/>
<path style="fill:#fbb155; stroke:none;" d="M531 247C515.075 247 494.422 250.543 479 246.682C466.345 243.514 461.407 231.404 446 236.221C422.229 243.652 419.189 279.263 444 287.891C452.92 290.993 463.593 289.427 470.96 283.471C474.156 280.887 476.201 276.164 480.093 274.603C489.973 270.642 507.359 274 518 274C521.673 274 527.369 272.961 530.61 275.028C534.769 277.68 538.263 285.844 541 290C525.287 287.083 509.888 290.969 498.428 302.428C494.402 306.454 490.826 316.217 485.787 318.397C478.416 321.586 474.091 313.297 468.999 309.85C462.055 305.15 452.916 303.977 445 306.599C421.175 314.49 420.158 350.742 445 358.215C463.75 363.854 470.836 346.012 487 346C490.089 376.187 528.935 387.5 553 376.11C572.026 367.104 580.079 344.876 575.789 325C573.94 316.437 569.872 309.434 564 303C573.833 304.826 583.674 304.346 593 300.546C600.785 297.374 607.335 291.765 612.254 284.996C616.641 278.958 619.093 272.311 620.385 265C625.195 237.786 603.154 214.575 577 212.171C557.236 210.353 533.098 226.521 531 247z"/>
<path style="fill:#f3ab54; stroke:none;" d="M579 212L580 213L579 212M564 213L565 214L564 213z"/>
<path style="fill:#eca752; stroke:none;" d="M585 213L586 214L585 213z"/>
<path style="fill:#e7a351; stroke:none;" d="M553 217L554 218L553 217z"/>
<path style="fill:#f3ab54; stroke:none;" d="M599 219L600 220L599 219M547 221L548 222L547 221z"/>
<path style="fill:#eca752; stroke:none;" d="M602 221L603 222L602 221z"/>
<path style="fill:#fbb155; stroke:none;" d="M242.603 225.028C238.446 228.321 241 244.044 241 249L241 321L241 411C241 419.093 237.496 437.891 242.028 444.682C243.919 447.516 248.054 446.994 251 447L277 447L364 447C371.885 447 390.058 450.393 396.682 445.972C401.506 442.753 399 428.151 399 423L399 353L399 263C399 253.433 402.616 234.892 398.397 226.318C396.95 223.378 392.704 224.006 390 224L364 224L275 224C267.839 224 248.266 220.543 242.603 225.028z"/>
<path style="fill:#f3ab54; stroke:none;" d="M65 225L65 229L66 229L65 225z"/>
<path style="fill:#eca752; stroke:none;" d="M65 229L65 233L66 233L65 229z"/>
<path style="fill:#f3ab54; stroke:none;" d="M611 230L612 231L611 230z"/>
<path style="fill:#e7a351; stroke:none;" d="M537 231L538 232L537 231M65 233L66 234L65 233z"/>
<path style="fill:#f3ab54; stroke:none;" d="M613 233L614 234L613 233z"/>
<path style="fill:#e7a351; stroke:none;" d="M92 234L93 235L92 234M535 234L536 235L535 234z"/>
<path style="fill:#f3ab54; stroke:none;" d="M92 235L93 236L92 235M534 236L535 237L534 236z"/>
<path style="fill:#e7a351; stroke:none;" d="M615 236L616 237L615 236z"/>
<path style="fill:#f3ab54; stroke:none;" d="M175 237L176 238L175 237M197 237L198 238L197 237M442 237L443 238L442 237M173 238L174 239L173 238M199 238L200 239L199 238M440 238L441 239L440 238M533 238L534 239L533 238z"/>
<path style="fill:#e7a351; stroke:none;" d="M171 239L172 240L171 239M468 239L469 240L468 239M571 239L572 240L571 239z"/>
<path style="fill:#010101; stroke:none;" d="M572 239.471C547.118 243.878 554.083 281.128 579 276.671C602.595 272.45 595.403 235.327 572 239.471z"/>
<path style="fill:#eca752; stroke:none;" d="M578 239L579 240L578 239z"/>
<path style="fill:#f3ab54; stroke:none;" d="M437 240L438 241L437 240M532 240L533 241L532 240z"/>
<path style="fill:#e7a351; stroke:none;" d="M93 242L94 243L93 242M618 243L619 244L618 243z"/>
<path style="fill:#eca752; stroke:none;" d="M66 244L67 245L66 244z"/>
<path style="fill:#f3ab54; stroke:none;" d="M561 244L562 245L561 244M208 246L209 247L208 246M431 246L432 247L431 246M530 246L531 247L530 246z"/>
<path style="fill:#e7a351; stroke:none;" d="M95 247L96 248L95 247z"/>
<path style="fill:#eca752; stroke:none;" d="M558 248L559 249L558 248M67 249L68 250L67 249z"/>
<path style="fill:#f3ab54; stroke:none;" d="M162 249L163 250L162 249z"/>
<path style="fill:#e7a351; stroke:none;" d="M210 249L211 250L210 249M429 249L430 250L429 249M99 250L100 251L99 250M557 250L558 251L557 250z"/>
<path style="fill:#eca752; stroke:none;" d="M106 251L107 252L106 251z"/>
<path style="fill:#f3ab54; stroke:none;" d="M161 251L162 252L161 251z"/>
<path style="fill:#e7a351; stroke:none;" d="M211 251L212 252L211 251z"/>
<path style="fill:#eca752; stroke:none;" d="M122 252L123 253L122 252z"/>
<path style="fill:#f3ab54; stroke:none;" d="M620 252L621 253L620 252M147 253L148 254L147 253z"/>
<path style="fill:#eca752; stroke:none;" d="M148.667 253.333L149.333 253.667L148.667 253.333z"/>
<path style="fill:#e7a351; stroke:none;" d="M150 253L151 254L150 253z"/>
<path style="fill:#eca752; stroke:none;" d="M160 253L161 254L160 253z"/>
<path style="fill:#f3ab54; stroke:none;" d="M593 253L594 254L593 253M212 254L213 255L212 254M427 254L428 255L427 254z"/>
<path style="fill:#eca752; stroke:none;" d="M69 255L70 256L69 255z"/>
<path style="fill:#f3ab54; stroke:none;" d="M71 259L72 260L71 259M213 259L214 260L213 259M426 259L427 260L426 259z"/>
<path style="fill:#e7a351; stroke:none;" d="M72 261L73 262L72 261M593 262L594 263L593 262M357.667 263.333L358.333 263.667L357.667 263.333z"/>
<path style="fill:#f3ab54; stroke:none;" d="M556 263L557 264L556 263M311 264L312 265L311 264z"/>
<path style="fill:#010101; stroke:none;" d="M315 376L315 352C352.082 351.996 377.475 310.794 352 280C358.418 279.038 372.82 268.023 359.956 264.438C352.921 262.477 346.987 268.544 340.285 268.849C336.587 269.017 332.607 266.267 329 265.428C320.912 263.548 312.976 263.605 305 266.039C277.68 274.378 266.236 306.78 280.349 331C284.724 338.508 296.479 342.967 299.397 350.105C303.526 360.21 294.204 379.973 301.742 388.347C304.046 390.906 307.831 390.953 311 390.996C318.662 391.1 339.966 394.612 344.896 387.606C347.777 383.51 345.247 378.589 340.981 376.894C333.722 374.008 322.73 376 315 376z"/>
<path style="fill:#eca752; stroke:none;" d="M324 264L325 265L324 264z"/>
<path style="fill:#f3ab54; stroke:none;" d="M353 264L354 265L353 264z"/>
<path style="fill:#e7a351; stroke:none;" d="M361 264L362 265L361 264M620 264L621 265L620 264z"/>
<path style="fill:#eca752; stroke:none;" d="M213 265L214 266L213 265M329 265L330 266L329 265M426 265L427 266L426 265z"/>
<path style="fill:#f3ab54; stroke:none;" d="M303 266L304 267L303 266M335 267L336 268L335 267z"/>
<path style="fill:#e7a351; stroke:none;" d="M345 267L346 268L345 267z"/>
<path style="fill:#eca752; stroke:none;" d="M337 268L338 269L337 268z"/>
<path style="fill:#f3ab54; stroke:none;" d="M342 268L343 269L342 268M339 269L340 270L339 269z"/>
<path style="fill:#e7a351; stroke:none;" d="M559 269L560 270L559 269z"/>
<path style="fill:#f3ab54; stroke:none;" d="M590 269L591 270L590 269z"/>
<path style="fill:#eca752; stroke:none;" d="M619 269L620 270L619 269M80 270L81 271L80 270M293 271L294 272L293 271z"/>
<path style="fill:#f3ab54; stroke:none;" d="M83 272L84 273L83 272z"/>
<path style="fill:#e7a351; stroke:none;" d="M364 273L365 274L364 273M563 273L564 274L563 273z"/>
<path style="fill:#f3ab54; stroke:none;" d="M586 273L587 274L586 273M289 274L290 275L289 274M89 275L90 276L89 275z"/>
<path style="fill:#eca752; stroke:none;" d="M288 275L289 276L288 275z"/>
<path style="fill:#f3ab54; stroke:none;" d="M566 275L567 276L566 275M617 275L618 276L617 275M92 276L93 277L92 276z"/>
<path style="fill:#e7a351; stroke:none;" d="M287 276L288 277L287 276M580 276L581 277L580 276z"/>
<path style="fill:#eca752; stroke:none;" d="M96 277L97 278L96 277z"/>
<path style="fill:#e7a351; stroke:none;" d="M286 277L287 278L286 277z"/>
<path style="fill:#f3ab54; stroke:none;" d="M360 277L361 278L360 277z"/>
<path style="fill:#e7a351; stroke:none;" d="M106 278L107 279L106 278z"/>
<path style="fill:#f3ab54; stroke:none;" d="M107 278L108 279L107 278z"/>
<path style="fill:#eca752; stroke:none;" d="M164 278L165 279L164 278M285 278L286 279L285 278z"/>
<path style="fill:#e7a351; stroke:none;" d="M475 278L476 279L475 278z"/>
<path style="fill:#eca752; stroke:none;" d="M123 279L124 280L123 279z"/>
<path style="fill:#f3ab54; stroke:none;" d="M124 279L125 280L124 279M207 279L208 280L207 279M284 279L285 280L284 279M432 279L433 280L432 279z"/>
<path style="fill:#eca752; stroke:none;" d="M151 280L151 281L155 281L151 280M352 280L353 281L352 280z"/>
<path style="fill:#f3ab54; stroke:none;" d="M433 280L434 281L433 280M614 281L615 282L614 281M203 283L204 284L203 283z"/>
<path style="fill:#eca752; stroke:none;" d="M281 283L282 284L281 283z"/>
<path style="fill:#f3ab54; stroke:none;" d="M436 283L437 284L436 283z"/>
<path style="fill:#eca752; stroke:none;" d="M536 283L537 284L536 283z"/>
<path style="fill:#f3ab54; stroke:none;" d="M612 284L613 285L612 284z"/>
<path style="fill:#eca752; stroke:none;" d="M313 285L314 286L313 285z"/>
<path style="fill:#fbb155; stroke:none;" d="M314 285.518C284.886 291.729 294.171 336.403 323 330.181C351.49 324.031 342.44 279.45 314 285.518z"/>
<path style="fill:#f3ab54; stroke:none;" d="M310 286L311 287L310 286z"/>
<path style="fill:#e7a351; stroke:none;" d="M326 286L327 287L326 286M356 286L357 287L356 286z"/>
<path style="fill:#f3ab54; stroke:none;" d="M328 287L329 288L328 287M539 287L540 288L539 287z"/>
<path style="fill:#e7a351; stroke:none;" d="M610 287L611 288L610 287M330 288L331 289L330 288z"/>
<path style="fill:#f3ab54; stroke:none;" d="M540 288L541 289L540 288z"/>
<path style="fill:#eca752; stroke:none;" d="M609 288L610 289L609 288M184 289L185 290L184 289z"/>
<path style="fill:#f3ab54; stroke:none;" d="M187 289L188 290L187 289z"/>
<path style="fill:#eca752; stroke:none;" d="M188 289L189 290L188 289M451 289L452 290L451 289z"/>
<path style="fill:#f3ab54; stroke:none;" d="M452 289L453 290L452 289z"/>
<path style="fill:#eca752; stroke:none;" d="M455 289L456 290L455 289z"/>
<path style="fill:#f3ab54; stroke:none;" d="M538 289L539 290L538 289M608 289L609 290L608 289z"/>
<path style="fill:#eca752; stroke:none;" d="M49 290L50 291L49 290z"/>
<path style="fill:#fbb155; stroke:none;" d="M161 348L161 343L162 343C170.91 370.9 212.924 360.233 213.74 333C214.589 304.657 171.073 293.586 162 322C149.525 318.313 133.004 321 120 321C115.388 321 108.509 322.265 104.213 320.397C99.069 318.159 95.9822 308.139 91.9599 304.015C78.9728 290.698 59.5071 286.384 42 292.699C-0.335831 307.971 5.77178 373.255 50 380.715C65.8322 383.385 82.5177 378.319 93.1921 365.91C96.9607 361.53 99.8597 350.827 105.133 348.603C109.746 346.658 117.061 348 122 348L161 348z"/>
<path style="fill:#f3ab54; stroke:none;" d="M67 290L68 291L67 290z"/>
<path style="fill:#eca752; stroke:none;" d="M303 290L304 291L303 290M358 290L359 291L358 290z"/>
<path style="fill:#e7a351; stroke:none;" d="M518 290L519 291L518 290z"/>
<path style="fill:#eca752; stroke:none;" d="M45 291L46 292L45 291z"/>
<path style="fill:#f3ab54; stroke:none;" d="M71 291L72 292L71 291M302 291L303 292L302 291z"/>
<path style="fill:#e7a351; stroke:none;" d="M515 291L516 292L515 291z"/>
<path style="fill:#f3ab54; stroke:none;" d="M606 291L607 292L606 291z"/>
<path style="fill:#e7a351; stroke:none;" d="M42 292L43 293L42 292z"/>
<path style="fill:#eca752; stroke:none;" d="M74 292L75 293L74 292z"/>
<path style="fill:#f3ab54; stroke:none;" d="M301 292L302 293L301 292M605 292L606 293L605 292M276 293L277 294L276 293z"/>
<path style="fill:#eca752; stroke:none;" d="M300 293L301 294L300 293M604 293L605 294L604 293M337 295L338 296L337 295M34 296L35 297L34 296z"/>
<path style="fill:#f3ab54; stroke:none;" d="M298 296L299 297L298 296z"/>
<path style="fill:#eca752; stroke:none;" d="M505 296L506 297L505 296M600 296L601 297L600 296M31 298L32 299L31 298z"/>
<path style="fill:#f3ab54; stroke:none;" d="M85 298L86 299L85 298M297 298L298 299L297 298M339 299L340 300L339 299z"/>
<path style="fill:#eca752; stroke:none;" d="M501 299L502 300L501 299z"/>
<path style="fill:#e7a351; stroke:none;" d="M361 300L362 301L361 300z"/>
<path style="fill:#f3ab54; stroke:none;" d="M500 300L501 301L500 300M499 301L500 302L499 301z"/>
<path style="fill:#eca752; stroke:none;" d="M590 301L591 302L590 301z"/>
<path style="fill:#e7a351; stroke:none;" d="M90 302L91 303L90 302z"/>
<path style="fill:#eca752; stroke:none;" d="M340 302L341 303L340 302M587 302L588 303L587 302M91 303L92 304L91 303z"/>
<path style="fill:#f3ab54; stroke:none;" d="M497 303L498 304L497 303M564 303L565 304L564 303z"/>
<path style="fill:#010101; stroke:none;" d="M565 303L566 304L565 303z"/>
<path style="fill:#eca752; stroke:none;" d="M566 303L567 304L566 303z"/>
<path style="fill:#e7a351; stroke:none;" d="M583 303L584 304L583 303z"/>
<path style="fill:#f3ab54; stroke:none;" d="M496 304L497 305L496 304z"/>
<path style="fill:#eca752; stroke:none;" d="M565 304L566 305L565 304z"/>
<path style="fill:#f3ab54; stroke:none;" d="M190 305L191 306L190 305z"/>
<path style="fill:#e7a351; stroke:none;" d="M295 305L296 306L295 305z"/>
<path style="fill:#f3ab54; stroke:none;" d="M449 305L450 306L449 305M457 305L458 306L457 305z"/>
<path style="fill:#eca752; stroke:none;" d="M495 305L496 306L495 305z"/>
<path style="fill:#f3ab54; stroke:none;" d="M295 306L296 307L295 306M175 307L176 308L175 307M197 307L198 308L197 307z"/>
<path style="fill:#eca752; stroke:none;" d="M442 307L443 308L442 307z"/>
<path style="fill:#f3ab54; stroke:none;" d="M464 307L465 308L464 307z"/>
<path style="fill:#eca752; stroke:none;" d="M21 308L22 309L21 308z"/>
<path style="fill:#f3ab54; stroke:none;" d="M173 308L174 309L173 308M199 308L200 309L199 308z"/>
<path style="fill:#eca752; stroke:none;" d="M440 308L441 309L440 308z"/>
<path style="fill:#f3ab54; stroke:none;" d="M568 308L569 309L568 308z"/>
<path style="fill:#e7a351; stroke:none;" d="M96 309L97 310L96 309z"/>
<path style="fill:#f3ab54; stroke:none;" d="M295 309L296 310L295 309z"/>
<path style="fill:#e7a351; stroke:none;" d="M492 309L493 310L492 309z"/>
<path style="fill:#f3ab54; stroke:none;" d="M202 310L203 311L202 310z"/>
<path style="fill:#e7a351; stroke:none;" d="M295 310L296 311L295 310z"/>
<path style="fill:#f3ab54; stroke:none;" d="M437 310L438 311L437 310z"/>
<path style="fill:#eca752; stroke:none;" d="M19 311L20 312L19 311z"/>
<path style="fill:#f3ab54; stroke:none;" d="M570 311L571 312L570 311z"/>
<path style="fill:#e7a351; stroke:none;" d="M340 313L341 314L340 313z"/>
<path style="fill:#eca752; stroke:none;" d="M274 314L275 315L274 314M361 315L362 316L361 315M58 316L59 317L58 316z"/>
<path style="fill:#f3ab54; stroke:none;" d="M164 316L165 317L164 316M208 316L209 317L208 316z"/>
<path style="fill:#eca752; stroke:none;" d="M339 316L340 317L339 316z"/>
<path style="fill:#f3ab54; stroke:none;" d="M431 316L432 317L431 316z"/>
<path style="fill:#eca752; stroke:none;" d="M525 316L526 317L525 316z"/>
<path style="fill:#010101; stroke:none;" d="M526 316.532C501.259 322.426 512.928 359.05 537 353.316C560.394 347.744 549.395 310.96 526 316.532z"/>
<path style="fill:#f3ab54; stroke:none;" d="M536 316L537 317L536 316z"/>
<path style="fill:#eca752; stroke:none;" d="M52 317L53 318L52 317z"/>
<path style="fill:#010101; stroke:none;" d="M53 317.533C30.6167 322.974 39.5914 359.219 62 354.316C87.4124 348.755 78.1823 311.412 53 317.533z"/>
<path style="fill:#e7a351; stroke:none;" d="M64 317L65 318L64 317M297 317L298 318L297 317z"/>
<path style="fill:#f3ab54; stroke:none;" d="M573 317L574 318L573 317M338 318L339 319L338 318z"/>
<path style="fill:#e7a351; stroke:none;" d="M15 319L16 320L15 319z"/>
<path style="fill:#f3ab54; stroke:none;" d="M162 319L163 320L162 319z"/>
<path style="fill:#e7a351; stroke:none;" d="M210 319L211 320L210 319z"/>
<path style="fill:#f3ab54; stroke:none;" d="M275 319L276 320L275 319z"/>
<path style="fill:#e7a351; stroke:none;" d="M298 319L299 320L298 319M429 319L430 320L429 319z"/>
<path style="fill:#eca752; stroke:none;" d="M519 319L520 320L519 319z"/>
<path style="fill:#f3ab54; stroke:none;" d="M542 319L543 320L542 319z"/>
<path style="fill:#e7a351; stroke:none;" d="M543 320L544 321L543 320z"/>
<path style="fill:#eca752; stroke:none;" d="M71 321L72 322L71 321z"/>
<path style="fill:#f3ab54; stroke:none;" d="M161 321L162 322L161 321M336 321L337 322L336 321z"/>
<path style="fill:#eca752; stroke:none;" d="M14 322L15 323L14 322M72 322L73 323L72 322z"/>
<path style="fill:#e7a351; stroke:none;" d="M276 322L277 323L276 322M545 322L546 323L545 322z"/>
<path style="fill:#f3ab54; stroke:none;" d="M73 323L74 324L73 323z"/>
<path style="fill:#e7a351; stroke:none;" d="M301 323L302 324L301 323z"/>
<path style="fill:#f3ab54; stroke:none;" d="M515 323L516 324L515 323M546 323L547 324L546 323z"/>
<path style="fill:#eca752; stroke:none;" d="M575 323L576 324L575 323z"/>
<path style="fill:#f3ab54; stroke:none;" d="M212 324L213 325L212 324z"/>
<path style="fill:#e7a351; stroke:none;" d="M302 324L303 325L302 324z"/>
<path style="fill:#f3ab54; stroke:none;" d="M427 324L428 325L427 324M13 326L14 327L13 326M331 326L332 327L331 326M278 327L279 328L278 327z"/>
<path style="fill:#eca752; stroke:none;" d="M306 327L307 328L306 327z"/>
<path style="fill:#f3ab54; stroke:none;" d="M308 328L309 329L308 328z"/>
<path style="fill:#e7a351; stroke:none;" d="M576 328L577 329L576 328z"/>
<path style="fill:#eca752; stroke:none;" d="M40 329L41 330L40 329z"/>
<path style="fill:#f3ab54; stroke:none;" d="M213 329L214 330L213 329M279 329L280 330L279 329M426 329L427 330L426 329z"/>
<path style="fill:#e7a351; stroke:none;" d="M314 330L315 331L314 330z"/>
<path style="fill:#f3ab54; stroke:none;" d="M321 330L322 331L321 330z"/>
<path style="fill:#e7a351; stroke:none;" d="M549 330L550 331L549 330z"/>
<path style="fill:#f3ab54; stroke:none;" d="M355 331L356 332L355 331M77 332L78 333L77 332M39 334L40 335L39 334M353 334L354 335L353 334z"/>
<path style="fill:#e7a351; stroke:none;" d="M39 335L40 336L39 335z"/>
<path style="fill:#eca752; stroke:none;" d="M213 335L214 336L213 335z"/>
<path style="fill:#f3ab54; stroke:none;" d="M283 335L284 336L283 335z"/>
<path style="fill:#eca752; stroke:none;" d="M426 335L427 336L426 335M39 336L40 337L39 336z"/>
<path style="fill:#e7a351; stroke:none;" d="M284 336L285 337L284 336z"/>
<path style="fill:#f3ab54; stroke:none;" d="M77 338L78 339L77 338z"/>
<path style="fill:#e7a351; stroke:none;" d="M212 340L213 341L212 340M427 340L428 341L427 340M549 340L550 341L549 340z"/>
<path style="fill:#f3ab54; stroke:none;" d="M576 341L577 342L576 341M76 342L77 343L76 342M290 342L291 343L290 342z"/>
<path style="fill:#e7a351; stroke:none;" d="M513 342L514 343L513 342M161 343L162 344L161 343z"/>
<path style="fill:#f3ab54; stroke:none;" d="M344 343L345 344L344 343z"/>
<path style="fill:#eca752; stroke:none;" d="M75 344L76 345L75 344z"/>
<path style="fill:#e7a351; stroke:none;" d="M514 344L515 345L514 344M162 345L163 346L162 345z"/>
<path style="fill:#f3ab54; stroke:none;" d="M341 345L342 346L341 345z"/>
<path style="fill:#eca752; stroke:none;" d="M296 346L297 347L296 346z"/>
<path style="fill:#f3ab54; stroke:none;" d="M486 346L487 347L486 346M43 347L44 348L43 347z"/>
<path style="fill:#e7a351; stroke:none;" d="M73 347L74 348L73 347M298 347L299 348L298 347z"/>
<path style="fill:#f3ab54; stroke:none;" d="M516 347L517 348L516 347z"/>
<path style="fill:#eca752; stroke:none;" d="M575 347L576 348L575 347z"/>
<path style="fill:#f3ab54; stroke:none;" d="M14 348L15 349L14 348z"/>
<path style="fill:#e7a351; stroke:none;" d="M44 348L45 349L44 348M164 348L165 349L164 348M299 348L299 384L300 384C300 373.613 303.011 357.56 299 348z"/>
<path style="fill:#eca752; stroke:none;" d="M475 348L476 349L475 348z"/>
<path style="fill:#f3ab54; stroke:none;" d="M517 348L518 349L517 348z"/>
<path style="fill:#e7a351; stroke:none;" d="M45 349L46 350L45 349M102 349L103 350L102 349z"/>
<path style="fill:#f3ab54; stroke:none;" d="M207 349L208 350L207 349M432 349L433 350L432 349M518 349L519 350L518 349M46 350L47 351L46 350z"/>
<path style="fill:#e7a351; stroke:none;" d="M70 350L71 351L70 350M543 350L544 351L543 350z"/>
<path style="fill:#f3ab54; stroke:none;" d="M15 351L16 352L15 351z"/>
<path style="fill:#eca752; stroke:none;" d="M325 351L326 352L325 351z"/>
<path style="fill:#f3ab54; stroke:none;" d="M521 351L522 352L521 351M49 352L50 353L49 352z"/>
<path style="fill:#e7a351; stroke:none;" d="M67 352L68 353L67 352M315 352L315 376L316 376L315 352z"/>
<path style="fill:#f3ab54; stroke:none;" d="M435 352L436 353L435 352M488 352L489 353L488 352M523 352L524 353L523 352M65 353L66 354L65 353M169 353L170 354L169 353M203 353L204 354L203 353M436 353L437 354L436 353M55 354L56 355L55 354z"/>
<path style="fill:#eca752; stroke:none;" d="M61 354L62 355L61 354M100 354L101 355L100 354z"/>
<path style="fill:#e7a351; stroke:none;" d="M170 354L171 355L170 354M469 354L470 355L469 354z"/>
<path style="fill:#f3ab54; stroke:none;" d="M489 354L490 355L489 354M99 356L100 357L99 356z"/>
<path style="fill:#eca752; stroke:none;" d="M98 358L99 359L98 358z"/>
<path style="fill:#e7a351; stroke:none;" d="M491 358L492 359L491 358M183 359L184 360L183 359z"/>
<path style="fill:#f3ab54; stroke:none;" d="M184 359L185 360L184 359M188 359L189 360L188 359z"/>
<path style="fill:#eca752; stroke:none;" d="M451 359L452 360L451 359z"/>
<path style="fill:#f3ab54; stroke:none;" d="M455 359L456 360L455 359z"/>
<path style="fill:#e7a351; stroke:none;" d="M456 359L457 360L456 359M20 361L21 362L20 361z"/>
<path style="fill:#f3ab54; stroke:none;" d="M96 361L97 362L96 361z"/>
<path style="fill:#eca752; stroke:none;" d="M493 361L494 362L493 361z"/>
<path style="fill:#e7a351; stroke:none;" d="M567 364L568 365L567 364z"/>
<path style="fill:#eca752; stroke:none;" d="M93 365L94 366L93 365z"/>
<path style="fill:#e7a351; stroke:none;" d="M24 366L25 367L24 366z"/>
<path style="fill:#f3ab54; stroke:none;" d="M92 366L93 367L92 366z"/>
<path style="fill:#eca752; stroke:none;" d="M25 367L26 368L25 367z"/>
<path style="fill:#e7a351; stroke:none;" d="M498 367L499 368L498 367z"/>
<path style="fill:#f3ab54; stroke:none;" d="M26 368L27 369L26 368z"/>
<path style="fill:#e7a351; stroke:none;" d="M27 369L28 370L27 369z"/>
<path style="fill:#f3ab54; stroke:none;" d="M89 369L90 370L89 369M88 370L89 371L88 370M561 370L562 371L561 370M503 371L504 372L503 371z"/>
<path style="fill:#e7a351; stroke:none;" d="M560 371L561 372L560 371M504 372L505 373L504 372z"/>
<path style="fill:#eca752; stroke:none;" d="M32 373L33 374L32 373z"/>
<path style="fill:#f3ab54; stroke:none;" d="M84 373L85 374L84 373M557 373L558 374L557 373z"/>
<path style="fill:#eca752; stroke:none;" d="M81 375L82 376L81 375z"/>
<path style="fill:#f3ab54; stroke:none;" d="M182 375L183 376L182 375z"/>
<path style="fill:#fbb155; stroke:none;" d="M83 502C83 480.951 84 460.057 84 439C84 431.601 82.8203 420.444 90.044 415.858C102.086 408.213 128.199 413 142 413C147.079 413 154.165 411.745 158.96 413.603C167.966 417.094 170.921 427.029 182 429.191C198.102 432.335 213.257 419.124 213.74 403C214.283 384.89 196.075 371.418 179 376.301C172.122 378.268 167.626 385.032 161 386.682C153.746 388.489 144.463 387 137 387C122.529 387 107.398 385.731 93 387.171C46.1989 391.85 58.3359 449.196 56.0895 482C55.7187 487.415 57.0823 493.692 55.6821 498.957C54.0629 505.045 43.4689 508.038 39.0394 512.174C28.7486 521.782 24.1211 536.183 25.0895 550C27.3033 581.586 62.0094 599.936 90 587.56C125.764 571.748 126.081 508.457 83 502z"/>
<path style="fill:#eca752; stroke:none;" d="M190 375L191 376L190 375M449 375L450 376L449 375z"/>
<path style="fill:#fbb155; stroke:none;" d="M564 502C510.791 511.485 527.352 598.095 580 591.714C586.663 590.906 593.127 589.291 599 585.957C623.311 572.155 629.757 538.925 612.482 517C607.143 510.224 592.06 505.218 590.344 496.995C583.182 462.664 607.23 395.503 556 387.439C543.158 385.418 528.992 387 516 387C505.876 387 485.372 383.136 477 389C458.357 353.161 404.736 394.836 435.174 422.532C444.782 431.276 459.546 431.849 469.985 424.211C474.003 421.271 476.355 415.419 481.04 413.603C486.088 411.647 493.648 413 499 413C512.321 413 525.684 412.688 539 413.015C544.515 413.15 553.354 412.994 557.775 416.653C563.98 421.787 561.731 431.963 562.039 439C562.954 459.885 563.986 481.1 564 502z"/>
<path style="fill:#f3ab54; stroke:none;" d="M457 375L458 376L457 375z"/>
<path style="fill:#eca752; stroke:none;" d="M509 375L510 376L509 375M37 376L38 377L37 376z"/>
<path style="fill:#f3ab54; stroke:none;" d="M79 376L80 377L79 376z"/>
<path style="fill:#e7a351; stroke:none;" d="M340 376L341 377L340 376M511 376L512 377L511 376M39 377L40 378L39 377z"/>
<path style="fill:#f3ab54; stroke:none;" d="M77 377L78 378L77 377z"/>
<path style="fill:#eca752; stroke:none;" d="M175 377L176 378L175 377M197 377L198 378L197 377z"/>
<path style="fill:#f3ab54; stroke:none;" d="M343 377L344 378L343 377z"/>
<path style="fill:#e7a351; stroke:none;" d="M442 377L443 378L442 377z"/>
<path style="fill:#f3ab54; stroke:none;" d="M464 377L465 378L464 377M549 377L550 378L549 377M173 378L174 379L173 378z"/>
<path style="fill:#eca752; stroke:none;" d="M199 378L200 379L199 378z"/>
<path style="fill:#e7a351; stroke:none;" d="M344 378L345 379L344 378z"/>
<path style="fill:#eca752; stroke:none;" d="M440 378L441 379L440 378z"/>
<path style="fill:#f3ab54; stroke:none;" d="M466 378L467 379L466 378z"/>
<path style="fill:#e7a351; stroke:none;" d="M516 378L517 379L516 378z"/>
<path style="fill:#eca752; stroke:none;" d="M72 379L73 380L72 379M48 380L49 381L48 380z"/>
<path style="fill:#f3ab54; stroke:none;" d="M68 380L69 381L68 380M170 380L171 381L170 380M202 380L203 381L202 380M437 380L438 381L437 380M469 380L470 381L469 380z"/>
<path style="fill:#eca752; stroke:none;" d="M525 380L526 381L525 380z"/>
<path style="fill:#f3ab54; stroke:none;" d="M536 380L537 381L536 380z"/>
<path style="fill:#eca752; stroke:none;" d="M55 381L56 382L55 381M61 381L62 382L61 381z"/>
<path style="fill:#e7a351; stroke:none;" d="M62 381L63 382L62 381z"/>
<path style="fill:#eca752; stroke:none;" d="M346 382L347 383L346 382z"/>
<path style="fill:#f3ab54; stroke:none;" d="M299 384L300 385L299 384z"/>
<path style="fill:#e7a351; stroke:none;" d="M346 384L347 385L346 384M105 386L106 387L105 386z"/>
<path style="fill:#eca752; stroke:none;" d="M106 386L106 387L164 387L145 386L106 386M208 386L209 387L208 386M431 386L432 387L431 386M478 386L478 387L542 387L522 386L478 386M90 387L91 388L90 387z"/>
<path style="fill:#f3ab54; stroke:none;" d="M300 387L301 388L300 387z"/>
<path style="fill:#eca752; stroke:none;" d="M345 387L346 388L345 387z"/>
<path style="fill:#f3ab54; stroke:none;" d="M85 388L86 389L85 388z"/>
<path style="fill:#e7a351; stroke:none;" d="M477 388L478 389L477 388M561 388L562 389L561 388M210 389L211 390L210 389z"/>
<path style="fill:#eca752; stroke:none;" d="M302 389L303 390L302 389z"/>
<path style="fill:#e7a351; stroke:none;" d="M343 389L344 390L343 389M429 389L430 390L429 389z"/>
<path style="fill:#f3ab54; stroke:none;" d="M564 389L565 390L564 389M79 390L80 391L79 390z"/>
<path style="fill:#eca752; stroke:none;" d="M304 390L305 391L304 390M341 390L342 391L341 390z"/>
<path style="fill:#e7a351; stroke:none;" d="M569 391L570 392L569 391z"/>
<path style="fill:#f3ab54; stroke:none;" d="M75 392L76 393L75 392z"/>
<path style="fill:#eca752; stroke:none;" d="M72 394L73 395L72 394M212 394L213 395L212 394M427 394L428 395L427 394M576 396L577 397L576 396z"/>
<path style="fill:#f3ab54; stroke:none;" d="M577 397L578 398L577 397M578 398L579 399L578 398M213 399L214 400L213 399M426 399L427 400L426 399z"/>
<path style="fill:#e7a351; stroke:none;" d="M579 399L580 400L579 399z"/>
<path style="fill:#f3ab54; stroke:none;" d="M65 401L66 402L65 401z"/>
<path style="fill:#eca752; stroke:none;" d="M303 401L304 402L303 401z"/>
<path style="fill:#010101; stroke:none;" d="M299 403C304.818 422.585 344.273 424.914 346 402C331.392 402 312.808 397.829 299 403z"/>
<path style="fill:#e7a351; stroke:none;" d="M321 401L322 402L321 401z"/>
<path style="fill:#eca752; stroke:none;" d="M322 401L322 402L331 402L322 401z"/>
<path style="fill:#f3ab54; stroke:none;" d="M346.333 403.667L346.667 404.333L346.333 403.667z"/>
<path style="fill:#eca752; stroke:none;" d="M582 403L583 404L582 403z"/>
<path style="fill:#f3ab54; stroke:none;" d="M63 404L64 405L63 404z"/>
<path style="fill:#eca752; stroke:none;" d="M213 405L214 406L213 405M426 405L427 406L426 405z"/>
<path style="fill:#f3ab54; stroke:none;" d="M300 407L301 408L300 407M585 409L586 410L585 409z"/>
<path style="fill:#e7a351; stroke:none;" d="M60 410L61 411L60 410M212 410L213 411L212 410M427 410L428 411L427 410z"/>
<path style="fill:#eca752; stroke:none;" d="M101 413L101 414L105 414L101 413z"/>
<path style="fill:#e7a351; stroke:none;" d="M540 413L541 414L540 413z"/>
<path style="fill:#eca752; stroke:none;" d="M541 413L541 414L545 414L541 413z"/>
<path style="fill:#f3ab54; stroke:none;" d="M554 414L555 415L554 414z"/>
<path style="fill:#e7a351; stroke:none;" d="M89 415L90 416L89 415M162 415L163 416L162 415M477 415L478 416L477 415z"/>
<path style="fill:#f3ab54; stroke:none;" d="M587 415L588 416L587 415z"/>
<path style="fill:#e7a351; stroke:none;" d="M332 416L333 417L332 416M558 416L559 417L558 416z"/>
<path style="fill:#f3ab54; stroke:none;" d="M314 417L315 418L314 417M559 417L560 418L559 417z"/>
<path style="fill:#eca752; stroke:none;" d="M164 418L165 419L164 418z"/>
<path style="fill:#f3ab54; stroke:none;" d="M325 418L326 419L325 418z"/>
<path style="fill:#eca752; stroke:none;" d="M475 418L476 419L475 418z"/>
<path style="fill:#f3ab54; stroke:none;" d="M432 419L433 420L432 419M85 420L86 421L85 420z"/>
<path style="fill:#eca752; stroke:none;" d="M588 420L589 421L588 420z"/>
<path style="fill:#e7a351; stroke:none;" d="M561 422L562 423L561 422z"/>
<path style="fill:#f3ab54; stroke:none;" d="M203 423L204 424L203 423M436 423L437 424L436 423z"/>
<path style="fill:#e7a351; stroke:none;" d="M170 424L171 425L170 424M469 424L470 425L469 424M57 425L58 426L57 425z"/>
<path style="fill:#eca752; stroke:none;" d="M57 426L58 427L57 426z"/>
<path style="fill:#e7a351; stroke:none;" d="M84 426L85 427L84 426M178 428L179 429L178 428M461 428L462 429L461 428z"/>
<path style="fill:#eca752; stroke:none;" d="M183 429L184 430L183 429z"/>
<path style="fill:#e7a351; stroke:none;" d="M189 429L190 430L189 429M450 429L451 430L450 429z"/>
<path style="fill:#eca752; stroke:none;" d="M456 429L457 430L456 429z"/>
<path style="fill:#f3ab54; stroke:none;" d="M562 443L563 444L562 443z"/>
<path style="fill:#eca752; stroke:none;" d="M562.333 444.667L562.667 445.333L562.333 444.667z"/>
<path style="fill:#e7a351; stroke:none;" d="M398 445L399 446L398 445M562.333 446.667L562.667 447.333L562.333 446.667M589.333 448.667L589.667 449.333L589.333 448.667z"/>
<path style="fill:#eca752; stroke:none;" d="M589 450L590 451L589 450z"/>
<path style="fill:#f3ab54; stroke:none;" d="M589.333 451.667L589.667 452.333L589.333 451.667M282 471L283 472L282 471z"/>
<path style="fill:#fbb155; stroke:none;" d="M209 534L209 512C225.223 512 246.458 515.594 262 511C275.901 537.796 317.628 523.662 312.674 494C309.82 476.909 290.865 466.58 275 473.532C268.774 476.261 264.833 484.33 257.985 484.941C238.214 486.706 207.24 477.781 191.04 492.213C184.066 498.426 182.044 507.003 182.001 516C181.98 520.208 183.279 527.003 180.972 530.725C178.702 534.387 172.546 535.768 169 537.927C162.898 541.641 157.889 546.804 154.337 553C137.295 582.726 158.03 623.759 194 622.871C214.046 622.376 232.044 609.361 237.791 590C244.039 568.95 232.955 538.273 209 534z"/>
<path style="fill:#e7a351; stroke:none;" d="M289 471L290 472L289 471z"/>
<path style="fill:#eca752; stroke:none;" d="M351 471L352 472L351 471z"/>
<path style="fill:#fbb155; stroke:none;" d="M382 504L383 504L383 512L448 512C453.579 512 466.397 509.77 469.972 515.303C480.45 531.519 453.31 540.688 446.36 551C426.321 580.729 448.282 621.978 484 622.871C518.195 623.726 541.204 584.597 525.1 555C521.457 548.306 516.316 542.617 510 538.36C506.741 536.163 500.272 534.539 498.603 530.775C493.32 518.863 500.686 506.075 489.895 495.093C480.492 485.525 465.545 485 453 485L382 485L382 492C378.201 483.984 373.796 476.462 365 473.13C345.748 465.835 325.984 481.792 328.174 502C331.659 534.17 373.015 530.388 382 504z"/>
<path style="fill:#eca752; stroke:none;" d="M358 471L359 472L358 471z"/>
<path style="fill:#f3ab54; stroke:none;" d="M83 472L84 473L83 472z"/>
<path style="fill:#e7a351; stroke:none;" d="M277 472L278 473L277 472z"/>
<path style="fill:#eca752; stroke:none;" d="M83.3333 473.667L83.6667 474.333L83.3333 473.667z"/>
<path style="fill:#f3ab54; stroke:none;" d="M296 473L297 474L296 473M344 473L345 474L344 473M298 474L299 475L298 474z"/>
<path style="fill:#e7a351; stroke:none;" d="M83 475L84 476L83 475z"/>
<path style="fill:#f3ab54; stroke:none;" d="M271 475L272 476L271 475z"/>
<path style="fill:#eca752; stroke:none;" d="M340 475L341 476L340 475z"/>
<path style="fill:#f3ab54; stroke:none;" d="M369 475L370 476L369 475z"/>
<path style="fill:#e7a351; stroke:none;" d="M56 476L57 477L56 476z"/>
<path style="fill:#eca752; stroke:none;" d="M56 477L57 478L56 477M268 477L269 478L268 477z"/>
<path style="fill:#f3ab54; stroke:none;" d="M56 478L57 479L56 478M267 478L268 479L267 478z"/>
<path style="fill:#e7a351; stroke:none;" d="M336 478L337 479L336 478M373 478L374 479L373 478z"/>
<path style="fill:#f3ab54; stroke:none;" d="M266 479L267 480L266 479z"/>
<path style="fill:#e7a351; stroke:none;" d="M335 479L336 480L335 479z"/>
<path style="fill:#eca752; stroke:none;" d="M374 479L375 480L374 479z"/>
<path style="fill:#f3ab54; stroke:none;" d="M265 480L266 481L265 480z"/>
<path style="fill:#e7a351; stroke:none;" d="M375 480L376 481L375 480M264 481L265 482L264 481z"/>
<path style="fill:#eca752; stroke:none;" d="M308 483L309 484L308 483z"/>
<path style="fill:#f3ab54; stroke:none;" d="M262 484L263 485L262 484z"/>
<path style="fill:#e7a351; stroke:none;" d="M206 485L207 486L206 485M466 485L467 486L466 485M379 486L380 487L379 486z"/>
<path style="fill:#f3ab54; stroke:none;" d="M472 486L473 487L472 486M476 487L477 488L476 487z"/>
<path style="fill:#e7a351; stroke:none;" d="M196 488L197 489L196 488z"/>
<path style="fill:#f3ab54; stroke:none;" d="M479 488L480 489L479 488z"/>
<path style="fill:#eca752; stroke:none;" d="M311 489L312 490L311 489z"/>
<path style="fill:#f3ab54; stroke:none;" d="M485 491L486 492L485 491z"/>
<path style="fill:#e7a351; stroke:none;" d="M190 492L191 493L190 492z"/>
<path style="fill:#f3ab54; stroke:none;" d="M328 492L329 493L328 492M563 492L564 493L563 492z"/>
<path style="fill:#e7a351; stroke:none;" d="M189 493L190 494L189 493z"/>
<path style="fill:#eca752; stroke:none;" d="M563 493L564 494L563 493z"/>
<path style="fill:#e7a351; stroke:none;" d="M489 494L490 495L489 494M563 494L564 495L563 494M490 495L491 496L490 495M590 495L591 496L590 495z"/>
<path style="fill:#eca752; stroke:none;" d="M590 496L591 497L590 496z"/>
<path style="fill:#f3ab54; stroke:none;" d="M186 497L187 498L186 497M590.333 497.667L590.667 498.333L590.333 497.667z"/>
<path style="fill:#e7a351; stroke:none;" d="M493 499L494 500L493 499z"/>
<path style="fill:#eca752; stroke:none;" d="M83 501L84 502L83 501z"/>
<path style="fill:#f3ab54; stroke:none;" d="M494 501L495 502L494 501M563 501L564 502L563 501z"/>
<path style="fill:#e7a351; stroke:none;" d="M86 502L87 503L86 502M52 503L53 504L52 503z"/>
<path style="fill:#f3ab54; stroke:none;" d="M558 503L559 504L558 503z"/>
<path style="fill:#eca752; stroke:none;" d="M50 504L51 505L50 504z"/>
<path style="fill:#f3ab54; stroke:none;" d="M328 504L329 505L328 504M382.333 504.667L382.667 505.333L382.333 504.667M556 504L557 505L556 504z"/>
<path style="fill:#e7a351; stroke:none;" d="M48 505L49 506L48 505z"/>
<path style="fill:#f3ab54; stroke:none;" d="M554 505L555 506L554 505M94 506L95 507L94 506z"/>
<path style="fill:#eca752; stroke:none;" d="M382 506L383 507L382 506M600 506L601 507L600 506M311 507L312 508L311 507z"/>
<path style="fill:#e7a351; stroke:none;" d="M382.333 507.667L382.667 508.333L382.333 507.667M182 508L183 509L182 508z"/>
<path style="fill:#eca752; stroke:none;" d="M603 508L604 509L603 508z"/>
<path style="fill:#e7a351; stroke:none;" d="M42 509L43 510L42 509z"/>
<path style="fill:#f3ab54; stroke:none;" d="M548 509L549 510L548 509z"/>
<path style="fill:#e7a351; stroke:none;" d="M379 510L380 511L379 510M101 511L102 512L101 511z"/>
<path style="fill:#eca752; stroke:none;" d="M261 511L262 512L261 511M102 512L103 513L102 512z"/>
<path style="fill:#f3ab54; stroke:none;" d="M262 512L263 513L262 512M465 512L466 513L465 512M103 513L104 514L103 513z"/>
<path style="fill:#eca752; stroke:none;" d="M308 513L309 514L308 513M104 514L105 515L104 514M470 514L471 515L470 514z"/>
<path style="fill:#e7a351; stroke:none;" d="M497 514L498 515L497 514M105 515L106 516L105 515M264 515L265 516L264 515z"/>
<path style="fill:#f3ab54; stroke:none;" d="M265 516L266 517L265 516z"/>
<path style="fill:#e7a351; stroke:none;" d="M375 516L376 517L375 516M34 517L35 518L34 517z"/>
<path style="fill:#f3ab54; stroke:none;" d="M266 517L267 518L266 517z"/>
<path style="fill:#e7a351; stroke:none;" d="M335 517L336 518L335 517z"/>
<path style="fill:#eca752; stroke:none;" d="M374 517L375 518L374 517z"/>
<path style="fill:#f3ab54; stroke:none;" d="M267 518L268 519L267 518z"/>
<path style="fill:#e7a351; stroke:none;" d="M336 518L337 519L336 518z"/>
<path style="fill:#eca752; stroke:none;" d="M373 518L374 519L373 518z"/>
<path style="fill:#e7a351; stroke:none;" d="M539 518L540 519L539 518z"/>
<path style="fill:#f3ab54; stroke:none;" d="M613 518L614 519L613 518M108 519L109 520L108 519z"/>
<path style="fill:#eca752; stroke:none;" d="M268 519L269 520L268 519M340 521L341 522L340 521z"/>
<path style="fill:#f3ab54; stroke:none;" d="M369 521L370 522L369 521z"/>
<path style="fill:#eca752; stroke:none;" d="M537 521L538 522L537 521z"/>
<path style="fill:#f3ab54; stroke:none;" d="M615 521L616 522L615 521z"/>
<path style="fill:#e7a351; stroke:none;" d="M110 522L111 523L110 522z"/>
<path style="fill:#f3ab54; stroke:none;" d="M298 522L299 523L298 522z"/>
<path style="fill:#e7a351; stroke:none;" d="M30 523L31 524L30 523z"/>
<path style="fill:#f3ab54; stroke:none;" d="M296 523L297 524L296 523M344 523L345 524L344 523z"/>
<path style="fill:#e7a351; stroke:none;" d="M277 524L278 525L277 524M29 525L30 526L29 525z"/>
<path style="fill:#f3ab54; stroke:none;" d="M282 525L283 526L282 525z"/>
<path style="fill:#e7a351; stroke:none;" d="M289 525L290 526L289 525z"/>
<path style="fill:#eca752; stroke:none;" d="M351 525L352 526L351 525M358 525L359 526L358 525z"/>
<path style="fill:#f3ab54; stroke:none;" d="M112 526L113 527L112 526z"/>
<path style="fill:#e7a351; stroke:none;" d="M28 527L29 528L28 527z"/>
<path style="fill:#010101; stroke:none;" d="M65 527.638C41.7317 534.364 52.8806 570.437 76 564.072C100.176 557.415 88.7822 520.764 65 527.638z"/>
<path style="fill:#eca752; stroke:none;" d="M76 527L77 528L76 527z"/>
<path style="fill:#f3ab54; stroke:none;" d="M570 527L571 528L570 527z"/>
<path style="fill:#010101; stroke:none;" d="M571 527.558C547.976 533.598 557.971 570.3 581 564.236C605.5 557.785 595.424 521.15 571 527.558z"/>
<path style="fill:#f3ab54; stroke:none;" d="M582 527L583 528L582 527M62 528L63 529L62 528z"/>
<path style="fill:#e7a351; stroke:none;" d="M113 528L114 529L113 528z"/>
<path style="fill:#f3ab54; stroke:none;" d="M60 529L61 530L60 529z"/>
<path style="fill:#e7a351; stroke:none;" d="M533 529L534 530L533 529z"/>
<path style="fill:#eca752; stroke:none;" d="M566 529L567 530L566 529z"/>
<path style="fill:#e7a351; stroke:none;" d="M586 529L587 530L586 529z"/>
<path style="fill:#f3ab54; stroke:none;" d="M619 529L620 530L619 529M27 530L28 531L27 530M82 530L83 531L82 530z"/>
<path style="fill:#e7a351; stroke:none;" d="M83 531L84 532L83 531z"/>
<path style="fill:#f3ab54; stroke:none;" d="M114 531L115 532L114 531z"/>
<path style="fill:#e7a351; stroke:none;" d="M84 532L85 533L84 532z"/>
<path style="fill:#f3ab54; stroke:none;" d="M532 532L533 533L532 532M590 532L591 533L590 532M26 533L27 534L26 533z"/>
<path style="fill:#eca752; stroke:none;" d="M85 533L86 534L85 533M209 533L210 534L209 533M175 534L176 535L175 534z"/>
<path style="fill:#f3ab54; stroke:none;" d="M173 535L174 536L173 535z"/>
<path style="fill:#e7a351; stroke:none;" d="M87 536L88 537L87 536z"/>
<path style="fill:#eca752; stroke:none;" d="M171 536L172 537L171 536z"/>
<path style="fill:#f3ab54; stroke:none;" d="M531 536L532 537L531 536M53 537L54 538L53 537z"/>
<path style="fill:#e7a351; stroke:none;" d="M460 537L461 538L460 537z"/>
<path style="fill:#eca752; stroke:none;" d="M508 537L509 538L508 537M88 538L89 539L88 538z"/>
<path style="fill:#e7a351; stroke:none;" d="M219 538L220 539L219 538z"/>
<path style="fill:#eca752; stroke:none;" d="M457 539L458 540L457 539M511 539L512 540L511 539M558 539L559 540L558 539z"/>
<path style="fill:#f3ab54; stroke:none;" d="M116 540L117 541L116 540z"/>
<path style="fill:#eca752; stroke:none;" d="M165 540L166 541L165 540z"/>
<path style="fill:#f3ab54; stroke:none;" d="M89 541L90 542L89 541z"/>
<path style="fill:#e7a351; stroke:none;" d="M223 541L224 542L223 541z"/>
<path style="fill:#eca752; stroke:none;" d="M224 542L225 543L224 542z"/>
<path style="fill:#f3ab54; stroke:none;" d="M225 543L226 544L225 543M557 543L558 544L557 543z"/>
<path style="fill:#e7a351; stroke:none;" d="M595 543L596 544L595 543M622 543L623 544L622 543z"/>
<path style="fill:#f3ab54; stroke:none;" d="M226 544L227 545L226 544z"/>
<path style="fill:#e7a351; stroke:none;" d="M557 544L558 545L557 544z"/>
<path style="fill:#eca752; stroke:none;" d="M622 544L623 545L622 544M227 545L228 546L227 545z"/>
<path style="fill:#e7a351; stroke:none;" d="M530 545L531 546L530 545M228 546L229 547L228 546M557 546L558 547L557 546z"/>
<path style="fill:#f3ab54; stroke:none;" d="M622 546L623 547L622 546M557 547L558 548L557 547z"/>
<path style="fill:#e7a351; stroke:none;" d="M622 547L623 548L622 547z"/>
<path style="fill:#eca752; stroke:none;" d="M157 548L158 549L157 548z"/>
<path style="fill:#e7a351; stroke:none;" d="M89 549L90 550L89 549z"/>
<path style="fill:#eca752; stroke:none;" d="M447 549L448 550L447 549z"/>
<path style="fill:#f3ab54; stroke:none;" d="M521 549L522 550L521 549M231 550L232 551L231 550M52 551L53 552L52 551M445 552L446 553L445 552M523 552L524 553L523 552M594 552L595 553L594 552M25 553L26 554L25 553z"/>
<path style="fill:#eca752; stroke:none;" d="M233 553L234 554L233 553M153 554L154 555L153 554z"/>
<path style="fill:#f3ab54; stroke:none;" d="M559 554L560 555L559 554z"/>
<path style="fill:#e7a351; stroke:none;" d="M593 554L594 555L593 554z"/>
<path style="fill:#f3ab54; stroke:none;" d="M234 555L235 556L234 555z"/>
<path style="fill:#eca752; stroke:none;" d="M621 555L622 556L621 555M115 556L116 557L115 556M152 556L153 557L152 556z"/>
<path style="fill:#f3ab54; stroke:none;" d="M592 556L593 557L592 556M235 557L236 558L235 557z"/>
<path style="fill:#e7a351; stroke:none;" d="M561 557L562 558L561 557z"/>
<path style="fill:#f3ab54; stroke:none;" d="M56 558L57 559L56 558z"/>
<path style="fill:#eca752; stroke:none;" d="M151 558L152 559L151 558z"/>
<path style="fill:#010101; stroke:none;" d="M188 558.638C164.75 565.359 175.935 601.674 199 595.061C223.059 588.162 211.896 551.731 188 558.638z"/>
<path style="fill:#e7a351; stroke:none;" d="M199 558L200 559L199 558z"/>
<path style="fill:#f3ab54; stroke:none;" d="M478 558L479 559L478 558z"/>
<path style="fill:#010101; stroke:none;" d="M479 558.533C456.28 564.055 465.479 600.557 488 595.47C513.198 589.778 504.2 552.408 479 558.533z"/>
<path style="fill:#f3ab54; stroke:none;" d="M490 558L491 559L490 558z"/>
<path style="fill:#eca752; stroke:none;" d="M57 559L58 560L57 559z"/>
<path style="fill:#e7a351; stroke:none;" d="M185 559L186 560L185 559M236 559L237 560L236 559M620 559L621 560L620 559z"/>
<path style="fill:#f3ab54; stroke:none;" d="M58 560L59 561L58 560M183 560L184 561L183 560z"/>
<path style="fill:#eca752; stroke:none;" d="M441 560L442 561L441 560z"/>
<path style="fill:#f3ab54; stroke:none;" d="M527 560L528 561L527 560M205 561L206 562L205 561M565 561L566 562L565 561M587 561L588 562L587 561M61 562L62 563L61 562z"/>
<path style="fill:#e7a351; stroke:none;" d="M206 562L207 563L206 562z"/>
<path style="fill:#f3ab54; stroke:none;" d="M237 562L238 563L237 562M497 562L498 563L497 562M63 563L64 564L63 563M440 563L441 564L440 563M470 563L471 564L470 563z"/>
<path style="fill:#eca752; stroke:none;" d="M569 563L570 564L569 563z"/>
<path style="fill:#e7a351; stroke:none;" d="M583 563L584 564L583 563z"/>
<path style="fill:#eca752; stroke:none;" d="M74 564L75 565L74 564z"/>
<path style="fill:#f3ab54; stroke:none;" d="M149 564L150 565L149 564z"/>
<path style="fill:#eca752; stroke:none;" d="M208 564L209 565L208 564z"/>
<path style="fill:#e7a351; stroke:none;" d="M534 564L535 565L534 564z"/>
<path style="fill:#f3ab54; stroke:none;" d="M580 564L581 565L580 564z"/>
<path style="fill:#eca752; stroke:none;" d="M618 564L619 565L618 564z"/>
<path style="fill:#f3ab54; stroke:none;" d="M177 566L178 567L177 566z"/>
<path style="fill:#e7a351; stroke:none;" d="M535 566L536 567L535 566z"/>
<path style="fill:#f3ab54; stroke:none;" d="M617 566L618 567L617 566z"/>
<path style="fill:#e7a351; stroke:none;" d="M210 567L211 568L210 567z"/>
<path style="fill:#eca752; stroke:none;" d="M148 568L149 569L148 568M176 568L177 569L176 568M616 568L617 569L616 568M31 569L32 570L31 569M211 569L212 570L211 569M109 570L110 571L109 570z"/>
<path style="fill:#e7a351; stroke:none;" d="M466 570L467 571L466 570z"/>
<path style="fill:#eca752; stroke:none;" d="M239 571L240 572L239 571z"/>
<path style="fill:#f3ab54; stroke:none;" d="M538 571L539 572L538 571M614 571L615 572L614 571z"/>
<path style="fill:#eca752; stroke:none;" d="M33 572L34 573L33 572z"/>
<path style="fill:#e7a351; stroke:none;" d="M107 573L108 574L107 573z"/>
<path style="fill:#f3ab54; stroke:none;" d="M465 574L466 575L465 574z"/>
<path style="fill:#eca752; stroke:none;" d="M503 574L504 575L503 574z"/>
<path style="fill:#e7a351; stroke:none;" d="M530 575L531 576L530 575z"/>
<path style="fill:#eca752; stroke:none;" d="M541 575L542 576L541 575z"/>
<path style="fill:#f3ab54; stroke:none;" d="M611 575L612 576L611 575z"/>
<path style="fill:#eca752; stroke:none;" d="M438 576L439 577L438 576z"/>
<path style="fill:#f3ab54; stroke:none;" d="M530 576L531 577L530 576M542 576L543 577L542 576z"/>
<path style="fill:#e7a351; stroke:none;" d="M438 577L439 578L438 577z"/>
<path style="fill:#eca752; stroke:none;" d="M530 577L531 578L530 577z"/>
<path style="fill:#f3ab54; stroke:none;" d="M543 577L544 578L543 577z"/>
<path style="fill:#e7a351; stroke:none;" d="M38 578L39 579L38 578z"/>
<path style="fill:#eca752; stroke:none;" d="M465 578L466 579L465 578z"/>
<path style="fill:#e7a351; stroke:none;" d="M503 578L504 579L503 578z"/>
<path style="fill:#f3ab54; stroke:none;" d="M545 579L546 580L545 579z"/>
<path style="fill:#eca752; stroke:none;" d="M212 580L213 581L212 580M546 580L547 581L546 580z"/>
<path style="fill:#f3ab54; stroke:none;" d="M606 580L607 581L606 580M99 581L100 582L99 581M239 581L240 582L239 581z"/>
<path style="fill:#e7a351; stroke:none;" d="M605 581L606 582L605 581z"/>
<path style="fill:#f3ab54; stroke:none;" d="M175 582L176 583L175 582z"/>
<path style="fill:#e7a351; stroke:none;" d="M44 583L45 584L44 583z"/>
<path style="fill:#f3ab54; stroke:none;" d="M550 583L551 584L550 583z"/>
<path style="fill:#eca752; stroke:none;" d="M95 584L96 585L95 584z"/>
<path style="fill:#f3ab54; stroke:none;" d="M148 584L149 585L148 584M467 585L468 586L467 585z"/>
<path style="fill:#eca752; stroke:none;" d="M501 585L502 586L501 585M553 585L554 586L553 585z"/>
<path style="fill:#f3ab54; stroke:none;" d="M599 585L600 586L599 585z"/>
<path style="fill:#eca752; stroke:none;" d="M49 586L50 587L49 586z"/>
<path style="fill:#e7a351; stroke:none;" d="M529 586L530 587L529 586z"/>
<path style="fill:#f3ab54; stroke:none;" d="M555 586L556 587L555 586z"/>
<path style="fill:#e7a351; stroke:none;" d="M51 587L52 588L51 587M209 587L210 588L209 587M238 587L239 588L238 587z"/>
<path style="fill:#f3ab54; stroke:none;" d="M557 587L558 588L557 587M87 588L88 589L87 588z"/>
<path style="fill:#eca752; stroke:none;" d="M469 588L470 589L469 588z"/>
<path style="fill:#e7a351; stroke:none;" d="M499 588L500 589L499 588M559 588L560 589L559 588z"/>
<path style="fill:#eca752; stroke:none;" d="M593 588L594 589L593 588z"/>
<path style="fill:#e7a351; stroke:none;" d="M56 589L57 590L56 589z"/>
<path style="fill:#f3ab54; stroke:none;" d="M179 589L180 590L179 589M562 589L563 590L562 589M60 590L61 591L60 590z"/>
<path style="fill:#e7a351; stroke:none;" d="M81 590L82 591L81 590z"/>
<path style="fill:#f3ab54; stroke:none;" d="M180 590L181 591L180 590M75 591L76 592L75 591z"/>
<path style="fill:#e7a351; stroke:none;" d="M472 591L473 592L472 591M496 591L497 592L496 591z"/>
<path style="fill:#eca752; stroke:none;" d="M571 591L572 592L571 591M581 591L582 592L581 591M204 592L205 593L204 592z"/>
<path style="fill:#f3ab54; stroke:none;" d="M495 592L496 593L495 592M184 593L185 594L184 593M236 593L237 594L236 593z"/>
<path style="fill:#e7a351; stroke:none;" d="M475 593L476 594L475 593M493 593L494 594L493 593z"/>
<path style="fill:#f3ab54; stroke:none;" d="M477 594L478 595L477 594M491 594L492 595L491 594z"/>
<path style="fill:#eca752; stroke:none;" d="M190 595L191 596L190 595z"/>
<path style="fill:#e7a351; stroke:none;" d="M442 595L443 596L442 595M526 595L527 596L526 595M443 597L444 598L443 597z"/>
<path style="fill:#eca752; stroke:none;" d="M525 597L526 598L525 597z"/>
<path style="fill:#e7a351; stroke:none;" d="M524 599L525 600L524 599z"/>
<path style="fill:#eca752; stroke:none;" d="M154 600L155 601L154 600M232 601L233 602L232 601z"/>
<path style="fill:#f3ab54; stroke:none;" d="M446 602L447 603L446 602M522 602L523 603L522 602z"/>
<path style="fill:#eca752; stroke:none;" d="M156 603L157 604L156 603z"/>
<path style="fill:#f3ab54; stroke:none;" d="M229 605L230 606L229 605z"/>
<path style="fill:#eca752; stroke:none;" d="M449 606L450 607L449 606M519 606L520 607L519 606z"/>
<path style="fill:#f3ab54; stroke:none;" d="M450 607L451 608L450 607M518 607L519 608L518 607M451 608L452 609L451 608z"/>
<path style="fill:#e7a351; stroke:none;" d="M161 609L162 610L161 609z"/>
<path style="fill:#f3ab54; stroke:none;" d="M452 609L453 610L452 609M453 610L454 611L453 610M515 610L516 611L515 610z"/>
<path style="fill:#e7a351; stroke:none;" d="M454 611L455 612L454 611z"/>
<path style="fill:#f3ab54; stroke:none;" d="M514 611L515 612L514 611M222 612L223 613L222 612M458 614L459 615L458 614M510 614L511 615L510 614z"/>
<path style="fill:#e7a351; stroke:none;" d="M218 615L219 616L218 615M461 616L462 617L461 616z"/>
<path style="fill:#eca752; stroke:none;" d="M507 616L508 617L507 616z"/>
<path style="fill:#e7a351; stroke:none;" d="M172 617L173 618L172 617z"/>
<path style="fill:#f3ab54; stroke:none;" d="M463 617L464 618L463 617M505 617L506 618L505 617z"/>
<path style="fill:#eca752; stroke:none;" d="M465 618L466 619L465 618z"/>
<path style="fill:#f3ab54; stroke:none;" d="M503 618L504 619L503 618z"/>
<path style="fill:#eca752; stroke:none;" d="M210 619L211 620L210 619M470 620L471 621L470 620z"/>
<path style="fill:#f3ab54; stroke:none;" d="M498 620L499 621L498 620M183 621L184 622L183 621M474 621L475 622L474 621M494 621L495 622L494 621z"/>
<path style="fill:#eca752; stroke:none;" d="M189 622L190 623L189 622z"/>
<path style="fill:#f3ab54; stroke:none;" d="M197 622L198 623L197 622z"/>
<path style="fill:#e7a351; stroke:none;" d="M198 622L199 623L198 622z"/>
<path style="fill:#eca752; stroke:none;" d="M480 622L481 623L480 622M488 622L489 623L488 622z"/>
</svg>
