<?xml version="1.0" encoding="UTF-8"?><svg id="a" xmlns="http://www.w3.org/2000/svg" viewBox="0 0 1000 1000"><defs><style>.b{fill:#f97316;}</style></defs><path class="b" d="M709.73,172.78c0-3.62-.62-7.29-1.92-10.87-6-16.48-24.22-24.98-40.7-18.98l-73.2,26.66c-.32,.12-.65,.25-.97,.37-29.46-16.69-63.5-26.2-99.77-26.2-112.05,0-202.9,90.84-202.9,202.9,0,81.83,48.45,152.35,118.21,184.42v164.91c0,.3,0,.6,.02,.9v.02c-.02,.28-.02,.56-.02,.85,0,17.54,14.22,31.76,31.76,31.76h151.73c8.77,0,16.71-3.56,22.46-9.3,5.73-5.75,9.3-13.69,9.3-22.46,0-17.54-14.22-31.76-31.76-31.76h-112.92v-116.94c4.66,.34,9.37,.49,14.11,.49,112.05,0,202.9-90.84,202.9-202.9,0-49.29-17.57-94.46-46.81-129.62l39.57-14.41c12.9-4.69,20.91-16.87,20.91-29.83Zm-215.79,281.5c-59.92,0-108.5-48.57-108.5-108.5s48.59-108.5,108.5-108.5,108.5,48.57,108.5,108.5-48.57,108.5-108.5,108.5Z"/><path class="b" d="M513.68,782.86c-87.05-.56-101.99-2.13-105.29,6.23-6.7,17.01,38.99,64.01,92.52,69.39,65.86,6.63,128.41-51.27,121.98-69.39-2.58-7.27-15.33-5.63-109.21-6.23Z"/></svg>