<?xml version="1.0" encoding="UTF-8" standalone="no"?>
<!-- Uploaded to: SVG Repo, www.svgrepo.com, Generator: SVG Repo Mixer Tools -->

<svg
   fill="#000000"
   version="1.1"
   width="800"
   height="800"
   viewBox="0 0 512 512"
   xml:space="preserve"
   id="svg1"
   sodipodi:docname="facebook-white.svg"
   xmlns:inkscape="http://www.inkscape.org/namespaces/inkscape"
   xmlns:sodipodi="http://sodipodi.sourceforge.net/DTD/sodipodi-0.dtd"
   xmlns="http://www.w3.org/2000/svg"
   xmlns:svg="http://www.w3.org/2000/svg"><defs
   id="defs1" /><sodipodi:namedview
   id="namedview1"
   pagecolor="#ffffff"
   bordercolor="#000000"
   borderopacity="0.25"
   inkscape:showpageshadow="2"
   inkscape:pageopacity="0.0"
   inkscape:pagecheckerboard="0"
   inkscape:deskcolor="#d1d1d1" />

<g
   id="7935ec95c421cee6d86eb22ecd11b7e3">

<path
   style="display:inline"
   d="m 283.122,122.174 c 0,5.24 0,22.319 0,46.583 h 83.424 l -9.045,74.367 h -74.379 c 0,114.688 0,268.375 0,268.375 h -98.726 c 0,0 0,-151.653 0,-268.375 h -51.443 v -74.367 h 51.443 c 0,-29.492 0,-50.463 0,-56.302 0,-27.82 -2.096,-41.02 9.725,-62.578 11.827,-21.557 45.187,-50.051 102.886,-49.365 57.713,0.711 82.04,6.263 82.04,6.263 l -12.501,79.257 c 0,0 -36.853,-9.731 -54.942,-6.263 -18.065,3.469 -28.482,14.597 -28.482,42.405 z"
   id="path1">

</path>

</g>

<path
   style="fill:#f9f9f9;stroke-width:0.636025"
   d="M 184.76522,376.84472 V 242.64348 h -25.75901 -25.759 V 205.75404 168.8646 h 25.759 25.75901 l 0.004,-43.72671 c 0.004,-47.468418 0.21904,-51.192623 3.52453,-61.059368 0.90807,-2.710514 2.97305,-7.576921 4.58885,-10.814234 12.01464,-24.071649 39.42918,-42.870739 72.022,-49.3879487 13.49709,-2.6988577 20.12888,-3.12673508 41.97764,-2.7083579 26.36572,0.5048716 49.87928,2.2257013 65.19254,4.7710855 5.65431,0.9398643 6.34912,1.1983942 6.25995,2.3292563 -0.274,3.4725268 -11.89243,76.3805468 -12.22953,76.7417888 -0.21495,0.230342 -4.11157,-0.4104 -8.65915,-1.423878 -18.81136,-4.192327 -39.53228,-5.889146 -47.50131,-3.88985 -16.27557,4.08327 -24.28008,13.811981 -26.52946,32.243986 -0.40068,3.28334 -0.69933,16.64042 -0.70036,31.32423 l -0.002,25.6 h 41.65963 c 31.19887,0 41.65963,0.1854 41.65963,0.73837 0,1.06344 -8.17524,68.50385 -8.60352,70.97343 l -0.35847,2.06708 H 319.89164 282.713 v 134.20124 134.20124 h -48.97391 -48.97391 z"
   id="path2" /></svg>
