<?xml version="1.0" encoding="UTF-8" standalone="no"?>
<!-- Uploaded to: SVG Repo, www.svgrepo.com, Generator: SVG Repo Mixer Tools -->

<svg
   width="800"
   height="800"
   viewBox="0 0 24 24"
   fill="none"
   version="1.1"
   id="svg1"
   sodipodi:docname="linkedin-white.svg"
   inkscape:export-filename="linkedin-white.png"
   inkscape:export-xdpi="96"
   inkscape:export-ydpi="96"
   xmlns:inkscape="http://www.inkscape.org/namespaces/inkscape"
   xmlns:sodipodi="http://sodipodi.sourceforge.net/DTD/sodipodi-0.dtd"
   xmlns="http://www.w3.org/2000/svg"
   xmlns:svg="http://www.w3.org/2000/svg">
  <defs
     id="defs1" />
  <sodipodi:namedview
     id="namedview1"
     pagecolor="#ffffff"
     bordercolor="#000000"
     borderopacity="0.25"
     inkscape:showpageshadow="2"
     inkscape:pageopacity="0.0"
     inkscape:pagecheckerboard="0"
     inkscape:deskcolor="#d1d1d1" />
  <path
     d="M 18.72,3.99997 H 5.37 C 5.19793,3.99191 5.02595,4.01786 4.86392,4.07635 4.70189,4.13484 4.55299,4.22471 4.42573,4.34081 4.29848,4.45692 4.19537,4.59699 4.12232,4.75299 4.04927,4.909 4.0077,5.07788 4,5.24997 V 18.63 c 0.01008,0.3601 0.15766,0.7028 0.41243,0.9575 C 4.6672,19.8423 5.00984,19.9899 5.37,20 h 13.35 c 0.3501,-0.0156 0.6802,-0.1678 0.9195,-0.4239 C 19.8788,19.32 20.0082,18.9804 20,18.63 V 5.24997 C 20.0029,5.08247 19.9715,4.91616 19.9078,4.76122 19.8441,4.60629 19.7494,4.466 19.6295,4.34895 19.5097,4.23191 19.3672,4.14059 19.2108,4.08058 19.0544,4.02057 18.8874,3.99314 18.72,3.99997 Z M 9,17.34 H 6.67 V 10.21 H 9 Z M 7.89,9.12997 C 7.72741,9.13564 7.5654,9.10762 7.41416,9.04768 7.26291,8.98774 7.12569,8.89717 7.01113,8.78166 6.89656,8.66615 6.80711,8.5282 6.74841,8.37647 6.6897,8.22474 6.66301,8.06251 6.67,7.89997 6.66281,7.73567 6.69004,7.57169 6.74995,7.41854 6.80986,7.26538 6.90112,7.12644 7.01787,7.01063 7.13463,6.89481 7.2743,6.80468 7.42793,6.74602 7.58157,6.68735 7.74577,6.66145 7.91,6.66997 8.07259,6.66431 8.2346,6.69232 8.38584,6.75226 8.53709,6.8122 8.67431,6.90277 8.78887,7.01828 8.90344,7.13379 8.99289,7.27174 9.05159,7.42347 9.1103,7.5752 9.13699,7.73743 9.13,7.89997 9.13719,8.06427 9.10996,8.22825 9.05005,8.3814 8.99014,8.53456 8.89888,8.6735 8.78213,8.78931 8.66537,8.90513 8.5257,8.99526 8.37207,9.05392 8.21843,9.11259 8.05423,9.13849 7.89,9.12997 Z M 17.34,17.34 H 15 v -3.9 c 0,-0.93 -0.33,-1.57 -1.16,-1.57 -0.2578,0.0022 -0.5087,0.0841 -0.7181,0.2345 -0.2095,0.1504 -0.3673,0.3619 -0.4519,0.6055 -0.065,0.1826 -0.0922,0.3765 -0.08,0.57 v 4.06 h -2.3 v -7.13 h 2.3 v 1 c 0.2045,-0.3757 0.5088,-0.6875 0.8794,-0.9011 0.3706,-0.2135 0.793,-0.32042 1.2206,-0.30893 1.51,0 2.65,1.00003 2.65,3.13003 z"
     fill="#000000"
     id="path1" />
  <path
     style="fill:#f9f9f9;stroke-width:0.0298137"
     d="M 5.0865786,19.94294 C 4.5673467,19.803301 4.1479227,19.364693 4.0415043,18.850064 4.0185357,18.738992 4.0113651,16.699139 4.0169523,11.865839 l 0.00789,-6.8273297 0.067764,-0.167529 C 4.2400281,4.506522 4.5043122,4.2433392 4.8752145,4.0916346 l 0.1632948,-0.06679 6.9018637,-0.00789 c 4.851954,-0.00555 6.948081,0.00167 7.057475,0.024285 0.347259,0.071803 0.689992,0.3243933 0.840522,0.6194556 0.159978,0.3135834 0.151692,-0.083356 0.151692,7.2669658 0,4.502032 -0.01029,6.856347 -0.03043,6.962551 -0.09781,0.515734 -0.481764,0.919378 -1.003903,1.055379 -0.253803,0.06611 -13.6229814,0.06355 -13.8691494,-0.0026 z m 3.932055,-6.169027 V 10.181366 H 7.8409938 6.663354 v 3.592547 3.592547 h 1.1776398 1.1776398 z m 3.5843204,1.363975 c 0.0088,-2.207121 0.0095,-2.230216 0.07383,-2.399495 0.224438,-0.590214 0.79374,-0.934736 1.373414,-0.831142 0.370421,0.0662 0.605735,0.253445 0.770337,0.612982 0.151287,0.330455 0.158665,0.456827 0.159789,2.73691 l 0.001,2.109317 h 1.19473 1.194729 l -0.01387,-2.392547 c -0.0091,-1.56386 -0.02541,-2.459667 -0.04718,-2.586336 -0.229485,-1.335041 -0.884926,-2.097421 -2.015361,-2.344178 -0.318718,-0.069571 -0.956536,-0.063297 -1.237267,0.01217 -0.558655,0.150181 -0.985794,0.441047 -1.325664,0.902728 l -0.135206,0.183664 v -0.480298 -0.480299 h -1.162733 -1.162733 v 3.592547 3.592547 h 1.161655 1.161655 z M 8.4581577,9.0277002 C 8.7122445,8.9081442 8.9076156,8.712993 9.028341,8.4581577 9.118296,8.2682751 9.122981,8.2406736 9.122981,7.9006212 9.122981,7.5605685 9.118291,7.532967 9.028341,7.3430844 8.9079345,7.0889226 8.7123195,6.8933079 8.4581577,6.7729011 8.2681263,6.6828759 8.2408641,6.678261 7.899075,6.678261 c -0.3550224,0 -0.3620061,0.00133 -0.5852103,0.1116459 -0.267348,0.1321305 -0.4113999,0.2797542 -0.5420424,0.555483 -0.088705,0.1872165 -0.093561,0.216039 -0.093561,0.5552313 0,0.3400524 0.00469,0.3676539 0.09464,0.5575365 0.148719,0.3139251 0.3926904,0.5247255 0.7401423,0.6395103 0.075995,0.025106 0.2328117,0.036611 0.4322982,0.031714 0.280308,-0.00688 0.3339339,-0.017513 0.5128159,-0.1016818 z"
     id="path2" />
</svg>
