<?xml version="1.0" encoding="UTF-8" standalone="no"?>
<svg
   width="1200"
   height="1227"
   viewBox="0 0 1200 1227"
   fill="none"
   version="1.1"
   id="svg1"
   sodipodi:docname="x-white.svg"
   xmlns:inkscape="http://www.inkscape.org/namespaces/inkscape"
   xmlns:sodipodi="http://sodipodi.sourceforge.net/DTD/sodipodi-0.dtd"
   xmlns="http://www.w3.org/2000/svg"
   xmlns:svg="http://www.w3.org/2000/svg">
  <defs
     id="defs1" />
  <sodipodi:namedview
     id="namedview1"
     pagecolor="#ffffff"
     bordercolor="#000000"
     borderopacity="0.25"
     inkscape:showpageshadow="2"
     inkscape:pageopacity="0.0"
     inkscape:pagecheckerboard="0"
     inkscape:deskcolor="#d1d1d1" />
  <path
     d="M 714.163,519.284 1160.89,0 H 1055.03 L 667.137,450.887 357.328,0 H 0 L 468.492,681.821 0,1226.37 H 105.866 L 515.491,750.218 842.672,1226.37 H 1200 L 714.137,519.284 Z M 569.165,687.828 521.697,619.934 144.011,79.6944 h 162.604 l 304.797,435.9906 47.468,67.894 396.2,566.721 H 892.476 L 569.165,687.854 Z"
     fill="white"
     id="path1"
     style="fill:#000000;fill-opacity:1" />
  <path
     style="fill:#f9f9f9;stroke-width:1.52422"
     d="M 4.0049818,1223.6029 C 5.1555338,1222.1537 109.49045,1100.7495 235.86036,953.81589 362.23026,806.88223 466.41064,685.40389 467.3723,683.86403 468.88583,681.44048 437.89479,635.61091 236.74936,342.81847 108.94508,156.78327 3.8668535,3.715295 3.2421853,2.6673913 2.3362063,1.1475779 37.977132,0.7621118 179.4079,0.7621118 H 356.70939 L 511.21259,225.61634 c 84.97676,123.66982 154.95316,225.13229 155.5031,225.47218 0.54994,0.33989 88.28629,-100.84451 194.96966,-224.85421 L 1055.6551,0.7621118 h 50.9964 c 28.048,0 50.9963,0.3547644 50.9963,0.7883655 0,0.4336011 -99.8241,116.8222827 -221.83127,258.6415227 -122.00721,141.81922 -221.63428,258.75486 -221.39348,259.85698 0.32254,1.47624 393.53245,574.73602 474.14385,691.25302 l 10.342,14.9485 -177.844,-0.3873 -177.84401,-0.3874 L 680.50828,988.6961 C 591.01635,858.46727 517.1885,751.30925 516.4464,750.56715 515.66352,749.78426 429.05846,849.30823 310.13428,987.6549 l -204.96285,238.437 -51.629182,0.073 c -48.724641,0.069 -51.5114927,-0.075 -49.5372662,-2.562 z M 1055.5237,1150.4078 c -6e-4,-0.6288 -168.31408,-241.89432 -374.02988,-536.14569 L 307.46509,79.259627 225.63779,78.865274 c -67.96545,-0.327548 -81.74339,-0.04668 -81.33193,1.657985 0.27246,1.128787 168.54103,242.530001 373.93016,536.447151 l 373.43479,534.39479 81.92702,0.093 c 45.05987,0.051 81.92647,-0.4216 81.92587,-1.0503 z"
     id="path2" />
</svg>
