<svg fill="none" xmlns="http://www.w3.org/2000/svg">
<!-- <svg width="1310" height="1355" viewBox="0 0 1310 1355" fill="none" xmlns="http://www.w3.org/2000/svg"> -->
<g filter="url(#filter0_f_88_18)">
<path fill-rule="evenodd" clip-rule="evenodd" d="M634.584 420.047C686.689 401.085 753.069 386.985 798 418.996C843.249 451.233 828.321 521.03 848.162 572.21C866.255 618.879 916.352 656.73 909.33 706.165C902.308 755.606 858 794.943 813.138 818.786C773.987 839.593 721.862 806.508 682.41 826.763C625.957 855.747 611.782 960.748 548.312 954.753C490.619 949.305 495.731 857.624 470.267 806.727C451.971 770.157 429.6 737.297 419.728 697.748C408.962 654.612 386.843 605.413 410.57 567.551C434.542 529.298 496.207 540.034 534.269 514.972C573.666 489.03 590.067 436.247 634.584 420.047Z" fill="url(#paint0_radial_88_18)" fill-opacity="0.9"/>
</g>
<defs>
<filter id="filter0_f_88_18" x="0" y="0" width="1310" height="1355" filterUnits="userSpaceOnUse" color-interpolation-filters="sRGB">
<feFlood flood-opacity="0" result="BackgroundImageFix"/>
<feBlend mode="normal" in="SourceGraphic" in2="BackgroundImageFix" result="shape"/>
<feGaussianBlur stdDeviation="200" result="effect1_foregroundBlur_88_18"/>
</filter>
<radialGradient id="paint0_radial_88_18" cx="0" cy="0" r="1" gradientUnits="userSpaceOnUse" gradientTransform="translate(655 677.5) rotate(90) scale(277.5 255)">
<stop offset="0.401042" stop-color="#0E9C89"/>
<stop offset="0.708333" stop-color="#F97316"/>
</radialGradient>
</defs>
</svg>
